<svg xmlns="http://www.w3.org/2000/svg" xmlns:xlink="http://www.w3.org/1999/xlink" width="128" zoomAndPan="magnify" viewBox="0 0 96 95.999999" height="128" preserveAspectRatio="xMidYMid meet" version="1.0"><defs><clipPath id="cd8842385e"><path d="M 2 36 L 54 36 L 54 95.28125 L 2 95.28125 Z M 2 36 " clip-rule="nonzero"/></clipPath></defs><path fill="#00b7e0" d="M 94.484375 48.394531 C 94.484375 49.882812 94.410156 51.367188 94.265625 52.847656 C 94.117188 54.328125 93.902344 55.796875 93.609375 57.257812 C 93.320312 58.714844 92.960938 60.15625 92.527344 61.582031 C 92.097656 63.003906 91.597656 64.402344 91.027344 65.777344 C 90.460938 67.152344 89.824219 68.496094 89.125 69.804688 C 88.421875 71.117188 87.660156 72.394531 86.835938 73.628906 C 86.007812 74.867188 85.125 76.058594 84.179688 77.210938 C 83.238281 78.359375 82.242188 79.460938 81.191406 80.511719 C 80.140625 81.5625 79.039062 82.5625 77.890625 83.503906 C 76.742188 84.449219 75.546875 85.335938 74.3125 86.160156 C 73.078125 86.988281 71.804688 87.75 70.492188 88.453125 C 69.179688 89.152344 67.839844 89.789062 66.464844 90.359375 C 65.09375 90.925781 63.695312 91.425781 62.273438 91.859375 C 60.851562 92.289062 59.410156 92.652344 57.953125 92.941406 C 56.496094 93.230469 55.027344 93.449219 53.546875 93.597656 C 52.066406 93.742188 50.585938 93.816406 49.097656 93.816406 C 47.613281 93.816406 46.128906 93.742188 44.648438 93.597656 C 43.171875 93.449219 41.703125 93.230469 40.242188 92.941406 C 38.785156 92.652344 37.347656 92.289062 35.921875 91.859375 C 34.5 91.425781 33.101562 90.925781 31.730469 90.359375 C 30.355469 89.789062 29.015625 89.152344 27.703125 88.453125 C 26.394531 87.75 25.121094 86.988281 23.882812 86.160156 C 22.648438 85.335938 21.457031 84.449219 20.304688 83.503906 C 19.15625 82.5625 18.058594 81.5625 17.007812 80.511719 C 15.953125 79.460938 14.957031 78.359375 14.015625 77.210938 C 13.070312 76.058594 12.1875 74.867188 11.363281 73.628906 C 10.535156 72.394531 9.773438 71.117188 9.070312 69.804688 C 8.371094 68.496094 7.738281 67.152344 7.167969 65.777344 C 6.597656 64.402344 6.097656 63.003906 5.667969 61.582031 C 5.234375 60.15625 4.875 58.714844 4.585938 57.257812 C 4.296875 55.796875 4.078125 54.328125 3.933594 52.847656 C 3.785156 51.367188 3.714844 49.882812 3.714844 48.394531 C 3.714844 46.910156 3.785156 45.425781 3.933594 43.945312 C 4.078125 42.464844 4.296875 40.996094 4.585938 39.535156 C 4.875 38.078125 5.234375 36.636719 5.667969 35.210938 C 6.097656 33.789062 6.597656 32.390625 7.167969 31.015625 C 7.738281 29.640625 8.371094 28.296875 9.070312 26.984375 C 9.773438 25.675781 10.535156 24.398438 11.363281 23.164062 C 12.1875 21.925781 13.070312 20.734375 14.015625 19.582031 C 14.957031 18.433594 15.953125 17.332031 17.007812 16.28125 C 18.058594 15.230469 19.15625 14.230469 20.304688 13.289062 C 21.457031 12.34375 22.648438 11.457031 23.882812 10.632812 C 25.121094 9.804688 26.394531 9.042969 27.703125 8.339844 C 29.015625 7.640625 30.355469 7.003906 31.730469 6.433594 C 33.101562 5.867188 34.5 5.363281 35.921875 4.933594 C 37.347656 4.5 38.785156 4.140625 40.242188 3.851562 C 41.703125 3.558594 43.171875 3.34375 44.648438 3.195312 C 46.128906 3.050781 47.613281 2.976562 49.097656 2.976562 C 50.585938 2.976562 52.066406 3.050781 53.546875 3.195312 C 55.027344 3.34375 56.496094 3.558594 57.953125 3.851562 C 59.410156 4.140625 60.851562 4.5 62.273438 4.933594 C 63.695312 5.363281 65.09375 5.867188 66.464844 6.433594 C 67.839844 7.003906 69.179688 7.640625 70.492188 8.339844 C 71.804688 9.042969 73.078125 9.804688 74.3125 10.632812 C 75.546875 11.457031 76.742188 12.34375 77.890625 13.289062 C 79.039062 14.230469 80.140625 15.230469 81.191406 16.28125 C 82.242188 17.332031 83.238281 18.433594 84.179688 19.582031 C 85.125 20.734375 86.007812 21.925781 86.835938 23.164062 C 87.660156 24.398438 88.421875 25.675781 89.125 26.984375 C 89.824219 28.296875 90.460938 29.640625 91.027344 31.015625 C 91.597656 32.390625 92.097656 33.789062 92.527344 35.210938 C 92.960938 36.636719 93.320312 38.078125 93.609375 39.535156 C 93.902344 40.996094 94.117188 42.464844 94.265625 43.945312 C 94.410156 45.425781 94.484375 46.910156 94.484375 48.394531 Z M 94.484375 48.394531 " fill-opacity="1" fill-rule="nonzero"/><path fill="#00d5f6" d="M 91.554688 48.394531 C 91.554688 49.789062 91.488281 51.175781 91.351562 52.5625 C 91.214844 53.945312 91.011719 55.320312 90.738281 56.683594 C 90.46875 58.050781 90.128906 59.398438 89.726562 60.730469 C 89.324219 62.0625 88.855469 63.371094 88.324219 64.65625 C 87.789062 65.941406 87.195312 67.199219 86.542969 68.425781 C 85.886719 69.652344 85.171875 70.84375 84.398438 72 C 83.628906 73.160156 82.800781 74.273438 81.917969 75.351562 C 81.035156 76.425781 80.101562 77.457031 79.121094 78.441406 C 78.136719 79.425781 77.105469 80.359375 76.03125 81.238281 C 74.957031 82.121094 73.84375 82.949219 72.6875 83.722656 C 71.53125 84.496094 70.339844 85.210938 69.113281 85.867188 C 67.886719 86.523438 66.628906 87.117188 65.34375 87.652344 C 64.0625 88.183594 62.753906 88.652344 61.421875 89.054688 C 60.09375 89.460938 58.746094 89.796875 57.382812 90.066406 C 56.015625 90.339844 54.644531 90.542969 53.257812 90.679688 C 51.875 90.816406 50.488281 90.882812 49.097656 90.882812 C 47.707031 90.882812 46.320312 90.816406 44.9375 90.679688 C 43.550781 90.542969 42.179688 90.339844 40.816406 90.066406 C 39.453125 89.796875 38.105469 89.460938 36.773438 89.054688 C 35.441406 88.652344 34.136719 88.183594 32.851562 87.652344 C 31.566406 87.117188 30.308594 86.523438 29.085938 85.867188 C 27.859375 85.210938 26.667969 84.496094 25.511719 83.722656 C 24.355469 82.949219 23.238281 82.121094 22.164062 81.238281 C 21.089844 80.359375 20.058594 79.425781 19.078125 78.441406 C 18.09375 77.457031 17.160156 76.425781 16.277344 75.351562 C 15.394531 74.273438 14.570312 73.160156 13.796875 72 C 13.023438 70.84375 12.308594 69.652344 11.65625 68.425781 C 11 67.199219 10.40625 65.941406 9.875 64.65625 C 9.339844 63.371094 8.875 62.0625 8.46875 60.730469 C 8.066406 59.398438 7.726562 58.050781 7.457031 56.683594 C 7.1875 55.320312 6.980469 53.945312 6.84375 52.5625 C 6.710938 51.175781 6.640625 49.789062 6.640625 48.394531 C 6.640625 47.003906 6.710938 45.617188 6.84375 44.230469 C 6.980469 42.847656 7.1875 41.472656 7.457031 40.105469 C 7.726562 38.742188 8.066406 37.394531 8.46875 36.0625 C 8.875 34.730469 9.339844 33.421875 9.875 32.136719 C 10.40625 30.851562 11 29.59375 11.65625 28.367188 C 12.308594 27.140625 13.023438 25.949219 13.796875 24.789062 C 14.570312 23.632812 15.394531 22.519531 16.277344 21.441406 C 17.160156 20.367188 18.09375 19.335938 19.078125 18.351562 C 20.058594 17.367188 21.089844 16.433594 22.164062 15.550781 C 23.238281 14.667969 24.355469 13.839844 25.511719 13.070312 C 26.667969 12.296875 27.859375 11.582031 29.085938 10.925781 C 30.308594 10.269531 31.566406 9.675781 32.851562 9.140625 C 34.136719 8.609375 35.441406 8.140625 36.773438 7.738281 C 38.105469 7.332031 39.453125 6.996094 40.816406 6.722656 C 42.179688 6.453125 43.550781 6.25 44.9375 6.113281 C 46.320312 5.976562 47.707031 5.90625 49.097656 5.90625 C 50.488281 5.90625 51.875 5.976562 53.257812 6.113281 C 54.644531 6.25 56.015625 6.453125 57.382812 6.722656 C 58.746094 6.996094 60.09375 7.332031 61.421875 7.738281 C 62.753906 8.140625 64.0625 8.609375 65.34375 9.140625 C 66.628906 9.675781 67.886719 10.269531 69.113281 10.925781 C 70.339844 11.582031 71.53125 12.296875 72.6875 13.070312 C 73.84375 13.839844 74.957031 14.667969 76.03125 15.550781 C 77.105469 16.433594 78.136719 17.367188 79.121094 18.351562 C 80.101562 19.335938 81.035156 20.367188 81.917969 21.441406 C 82.800781 22.519531 83.628906 23.632812 84.398438 24.789062 C 85.171875 25.949219 85.886719 27.140625 86.542969 28.367188 C 87.195312 29.59375 87.789062 30.851562 88.324219 32.136719 C 88.855469 33.421875 89.324219 34.730469 89.726562 36.0625 C 90.128906 37.394531 90.46875 38.742188 90.738281 40.105469 C 91.011719 41.472656 91.214844 42.847656 91.351562 44.230469 C 91.488281 45.617188 91.554688 47.003906 91.554688 48.394531 Z M 91.554688 48.394531 " fill-opacity="1" fill-rule="nonzero"/><path fill="#00b7e0" d="M 56.417969 77.699219 C 55.578125 77.699219 54.738281 77.671875 53.898438 77.625 C 53.0625 77.574219 52.222656 77.5 51.390625 77.398438 C 50.554688 77.300781 49.726562 77.175781 48.898438 77.027344 C 48.070312 76.878906 47.25 76.703125 46.433594 76.507812 C 45.617188 76.308594 44.804688 76.085938 44.003906 75.839844 C 43.199219 75.59375 42.402344 75.324219 41.617188 75.03125 C 40.828125 74.738281 40.050781 74.421875 39.28125 74.082031 C 38.511719 73.742188 37.753906 73.382812 37.007812 72.996094 C 36.261719 72.613281 35.523438 72.207031 34.800781 71.777344 C 34.078125 71.351562 33.371094 70.902344 32.671875 70.429688 C 31.976562 69.960938 31.292969 69.46875 30.625 68.960938 C 29.960938 68.449219 29.308594 67.917969 28.671875 67.367188 C 28.035156 66.820312 27.417969 66.25 26.816406 65.664062 C 26.210938 65.078125 25.628906 64.476562 25.0625 63.855469 C 24.496094 63.234375 23.949219 62.59375 23.417969 61.941406 C 22.890625 61.289062 22.382812 60.621094 21.890625 59.9375 C 21.402344 59.253906 20.933594 58.554688 20.488281 57.84375 C 20.039062 57.132812 19.613281 56.40625 19.210938 55.671875 C 18.804688 54.933594 18.421875 54.183594 18.0625 53.425781 C 17.703125 52.664062 17.363281 51.894531 17.050781 51.117188 C 16.734375 50.335938 16.445312 49.546875 16.175781 48.75 C 15.910156 47.953125 15.664062 47.148438 15.445312 46.339844 C 15.226562 45.527344 15.027344 44.710938 14.855469 43.886719 C 14.6875 43.0625 14.539062 42.234375 14.417969 41.402344 C 14.292969 40.570312 14.195312 39.738281 14.125 38.898438 C 14.050781 38.0625 14.003906 37.222656 13.980469 36.382812 C 13.957031 35.542969 13.957031 34.699219 13.984375 33.859375 C 14.011719 33.019531 14.0625 32.179688 14.140625 31.34375 C 14.214844 30.507812 14.316406 29.671875 14.441406 28.839844 C 14.570312 28.007812 14.71875 27.183594 14.894531 26.359375 C 15.070312 25.539062 15.269531 24.722656 15.492188 23.910156 C 15.714844 23.101562 15.960938 22.296875 16.234375 21.5 C 15.742188 22.101562 15.269531 22.714844 14.8125 23.339844 C 14.359375 23.964844 13.917969 24.601562 13.496094 25.25 C 13.078125 25.898438 12.671875 26.558594 12.289062 27.230469 C 11.902344 27.902344 11.535156 28.585938 11.1875 29.277344 C 10.839844 29.96875 10.511719 30.667969 10.199219 31.378906 C 9.890625 32.085938 9.601562 32.804688 9.328125 33.53125 C 9.058594 34.257812 8.808594 34.988281 8.578125 35.726562 C 8.347656 36.464844 8.136719 37.210938 7.945312 37.960938 C 7.757812 38.710938 7.585938 39.46875 7.4375 40.226562 C 7.289062 40.988281 7.160156 41.75 7.054688 42.519531 C 6.949219 43.285156 6.859375 44.054688 6.796875 44.824219 C 6.730469 45.597656 6.6875 46.371094 6.664062 47.144531 C 6.640625 47.917969 6.640625 48.691406 6.660156 49.46875 C 6.679688 50.242188 6.71875 51.015625 6.78125 51.785156 C 6.84375 52.558594 6.925781 53.328125 7.03125 54.09375 C 7.132812 54.863281 7.257812 55.625 7.402344 56.386719 C 7.550781 57.148438 7.714844 57.902344 7.902344 58.65625 C 8.089844 59.40625 8.296875 60.152344 8.523438 60.890625 C 8.753906 61.632812 9 62.367188 9.265625 63.09375 C 9.535156 63.820312 9.824219 64.535156 10.128906 65.246094 C 10.4375 65.957031 10.761719 66.660156 11.109375 67.355469 C 11.453125 68.046875 11.816406 68.730469 12.199219 69.402344 C 12.582031 70.074219 12.984375 70.738281 13.402344 71.390625 C 13.820312 72.039062 14.257812 72.679688 14.710938 73.308594 C 15.164062 73.933594 15.632812 74.546875 16.121094 75.148438 C 16.609375 75.75 17.113281 76.339844 17.632812 76.914062 C 18.152344 77.488281 18.6875 78.046875 19.234375 78.589844 C 19.785156 79.136719 20.351562 79.664062 20.929688 80.179688 C 21.507812 80.691406 22.101562 81.191406 22.707031 81.671875 C 23.3125 82.152344 23.929688 82.617188 24.5625 83.066406 C 25.195312 83.511719 25.835938 83.945312 26.492188 84.355469 C 27.148438 84.769531 27.8125 85.164062 28.488281 85.539062 C 29.164062 85.914062 29.851562 86.273438 30.546875 86.609375 C 31.242188 86.949219 31.949219 87.269531 32.660156 87.566406 C 33.375 87.867188 34.097656 88.148438 34.824219 88.40625 C 35.554688 88.667969 36.289062 88.910156 37.03125 89.128906 C 37.773438 89.347656 38.519531 89.546875 39.273438 89.726562 C 40.023438 89.90625 40.78125 90.066406 41.542969 90.203125 C 42.304688 90.339844 43.070312 90.457031 43.835938 90.554688 C 44.605469 90.652344 45.375 90.726562 46.148438 90.78125 C 46.917969 90.832031 47.691406 90.867188 48.464844 90.878906 C 49.238281 90.890625 50.011719 90.878906 50.785156 90.847656 C 51.558594 90.820312 52.332031 90.765625 53.101562 90.695312 C 53.871094 90.621094 54.640625 90.527344 55.40625 90.414062 C 56.167969 90.296875 56.929688 90.160156 57.6875 90.003906 C 58.445312 89.847656 59.199219 89.671875 59.949219 89.472656 C 60.695312 89.277344 61.4375 89.058594 62.175781 88.820312 C 62.910156 88.582031 63.640625 88.320312 64.363281 88.042969 C 65.085938 87.765625 65.796875 87.46875 66.503906 87.148438 C 67.210938 86.832031 67.90625 86.496094 68.59375 86.140625 C 69.28125 85.785156 69.957031 85.410156 70.625 85.019531 C 71.292969 84.625 71.949219 84.214844 72.59375 83.789062 C 73.238281 83.359375 73.871094 82.914062 74.488281 82.449219 C 75.109375 81.988281 75.71875 81.507812 76.3125 81.011719 C 76.90625 80.515625 77.484375 80.003906 78.050781 79.476562 C 78.617188 78.945312 79.167969 78.402344 79.703125 77.847656 C 80.242188 77.289062 80.761719 76.714844 81.265625 76.128906 C 81.773438 75.542969 82.261719 74.941406 82.734375 74.328125 C 83.207031 73.714844 83.660156 73.089844 84.097656 72.453125 C 84.535156 71.8125 84.957031 71.164062 85.359375 70.503906 C 85.761719 69.839844 86.148438 69.167969 86.511719 68.488281 C 86.878906 67.804688 87.226562 67.113281 87.554688 66.410156 C 87.882812 65.710938 88.191406 65 88.480469 64.28125 C 88.769531 63.5625 89.039062 62.839844 89.289062 62.105469 C 87.300781 64.542969 85.066406 66.734375 82.589844 68.675781 C 80.113281 70.617188 77.453125 72.261719 74.609375 73.613281 C 71.769531 74.960938 68.8125 75.980469 65.742188 76.667969 C 62.671875 77.359375 59.5625 77.703125 56.417969 77.699219 Z M 56.417969 77.699219 " fill-opacity="1" fill-rule="nonzero"/><path fill="#78edff" d="M 54.402344 12.683594 C 53.976562 13.167969 53.691406 13.722656 53.546875 14.351562 C 53.15625 16.308594 54.890625 18.027344 56.59375 19.121094 C 58.152344 20.085938 59.761719 20.960938 61.417969 21.746094 L 68.09375 25.074219 C 70.519531 26.285156 73.296875 28.066406 76.074219 27.871094 C 76.800781 27.859375 77.488281 27.6875 78.136719 27.359375 C 80.523438 25.960938 80.007812 22.855469 78.976562 20.777344 C 77.765625 18.59375 76.101562 16.835938 73.988281 15.507812 C 69.539062 12.441406 58.90625 7.226562 54.402344 12.683594 Z M 54.402344 12.683594 " fill-opacity="1" fill-rule="nonzero"/><path fill="#78edff" d="M 78.535156 29.96875 C 78.308594 30.441406 78.316406 30.914062 78.550781 31.378906 C 78.734375 31.667969 78.957031 31.917969 79.226562 32.132812 C 79.660156 32.554688 80.136719 32.925781 80.652344 33.242188 C 81.21875 33.585938 81.832031 33.753906 82.492188 33.746094 C 82.816406 33.746094 83.113281 33.65625 83.382812 33.480469 C 83.511719 33.382812 83.621094 33.261719 83.707031 33.125 C 83.933594 32.746094 84.085938 32.335938 84.160156 31.898438 C 84.238281 31.460938 84.230469 31.023438 84.140625 30.585938 C 84.046875 30.152344 83.882812 29.746094 83.640625 29.375 C 83.398438 29 83.09375 28.683594 82.734375 28.425781 C 81.042969 27.078125 79.160156 28.5 78.535156 29.96875 Z M 78.535156 29.96875 " fill-opacity="1" fill-rule="nonzero"/><path fill="#f7f7ff" d="M 81.304688 46.859375 L 81.304688 49.933594 C 81.308594 50.21875 81.277344 50.5 81.222656 50.777344 C 81.167969 51.054688 81.085938 51.328125 80.976562 51.589844 C 80.871094 51.851562 80.738281 52.101562 80.578125 52.335938 C 80.421875 52.570312 80.242188 52.789062 80.042969 52.992188 C 79.839844 53.191406 79.625 53.371094 79.386719 53.527344 C 79.152344 53.6875 78.902344 53.820312 78.640625 53.929688 C 78.378906 54.035156 78.109375 54.117188 77.832031 54.175781 C 77.550781 54.230469 77.269531 54.257812 76.988281 54.257812 L 76.445312 54.257812 C 75.996094 54.261719 75.558594 54.335938 75.132812 54.472656 C 74.707031 54.613281 74.3125 54.8125 73.945312 55.074219 C 73.582031 55.335938 73.265625 55.644531 72.992188 56 C 72.722656 56.359375 72.511719 56.75 72.363281 57.171875 C 72.1875 57.671875 71.980469 58.167969 71.761719 58.652344 C 71.570312 59.058594 71.441406 59.480469 71.378906 59.925781 C 71.316406 60.371094 71.320312 60.8125 71.394531 61.257812 C 71.46875 61.699219 71.605469 62.121094 71.808594 62.519531 C 72.011719 62.921875 72.269531 63.28125 72.582031 63.605469 L 72.960938 63.984375 C 73.160156 64.1875 73.339844 64.402344 73.496094 64.640625 C 73.65625 64.875 73.789062 65.125 73.894531 65.386719 C 74.003906 65.648438 74.085938 65.917969 74.140625 66.195312 C 74.195312 66.476562 74.222656 66.757812 74.222656 67.039062 C 74.222656 67.324219 74.195312 67.605469 74.140625 67.882812 C 74.085938 68.160156 74.003906 68.429688 73.894531 68.691406 C 73.789062 68.953125 73.65625 69.203125 73.496094 69.441406 C 73.339844 69.675781 73.160156 69.894531 72.960938 70.09375 L 70.78125 72.277344 C 70.578125 72.476562 70.363281 72.65625 70.125 72.8125 C 69.890625 72.972656 69.640625 73.105469 69.378906 73.214844 C 69.117188 73.320312 68.847656 73.402344 68.570312 73.457031 C 68.292969 73.515625 68.011719 73.542969 67.726562 73.542969 C 67.445312 73.542969 67.164062 73.515625 66.886719 73.457031 C 66.609375 73.402344 66.335938 73.320312 66.074219 73.214844 C 65.8125 73.105469 65.566406 72.972656 65.328125 72.8125 C 65.09375 72.65625 64.875 72.476562 64.675781 72.277344 L 64.292969 71.898438 C 63.972656 71.582031 63.613281 71.324219 63.210938 71.125 C 62.8125 70.921875 62.390625 70.785156 61.949219 70.710938 C 61.507812 70.636719 61.0625 70.632812 60.621094 70.695312 C 60.175781 70.757812 59.75 70.882812 59.347656 71.078125 C 58.863281 71.296875 58.367188 71.5 57.867188 71.675781 C 57.445312 71.828125 57.054688 72.039062 56.699219 72.308594 C 56.339844 72.582031 56.03125 72.898438 55.769531 73.261719 C 55.511719 73.628906 55.308594 74.023438 55.171875 74.453125 C 55.03125 74.878906 54.960938 75.316406 54.953125 75.765625 L 54.953125 76.308594 C 54.953125 76.589844 54.925781 76.871094 54.871094 77.148438 C 54.816406 77.429688 54.734375 77.699219 54.625 77.960938 C 54.515625 78.222656 54.382812 78.472656 54.226562 78.707031 C 54.070312 78.945312 53.890625 79.164062 53.691406 79.363281 C 53.488281 79.5625 53.269531 79.742188 53.035156 79.902344 C 52.800781 80.058594 52.550781 80.191406 52.289062 80.300781 C 52.027344 80.410156 51.757812 80.492188 51.476562 80.546875 C 51.199219 80.601562 50.917969 80.628906 50.636719 80.628906 L 47.5625 80.628906 C 47.277344 80.628906 46.996094 80.601562 46.71875 80.546875 C 46.441406 80.492188 46.167969 80.410156 45.90625 80.300781 C 45.644531 80.191406 45.398438 80.058594 45.160156 79.902344 C 44.925781 79.742188 44.707031 79.5625 44.507812 79.363281 C 44.304688 79.164062 44.125 78.945312 43.96875 78.707031 C 43.8125 78.472656 43.679688 78.222656 43.570312 77.960938 C 43.460938 77.699219 43.378906 77.429688 43.324219 77.148438 C 43.269531 76.871094 43.242188 76.589844 43.242188 76.308594 L 43.242188 75.765625 C 43.238281 75.316406 43.164062 74.878906 43.023438 74.453125 C 42.886719 74.023438 42.6875 73.628906 42.425781 73.261719 C 42.164062 72.898438 41.855469 72.582031 41.5 72.308594 C 41.140625 72.039062 40.75 71.828125 40.328125 71.675781 C 39.832031 71.5 39.332031 71.296875 38.851562 71.078125 C 38.445312 70.882812 38.019531 70.757812 37.578125 70.695312 C 37.132812 70.632812 36.6875 70.636719 36.246094 70.710938 C 35.804688 70.785156 35.382812 70.921875 34.984375 71.125 C 34.582031 71.324219 34.222656 71.582031 33.902344 71.898438 L 33.519531 72.277344 C 33.320312 72.476562 33.101562 72.65625 32.867188 72.8125 C 32.628906 72.972656 32.382812 73.105469 32.121094 73.214844 C 31.859375 73.320312 31.589844 73.402344 31.308594 73.457031 C 31.03125 73.515625 30.75 73.542969 30.46875 73.542969 C 30.183594 73.542969 29.902344 73.515625 29.625 73.457031 C 29.347656 73.402344 29.078125 73.320312 28.816406 73.214844 C 28.554688 73.105469 28.304688 72.972656 28.070312 72.8125 C 27.835938 72.65625 27.617188 72.476562 27.414062 72.277344 L 25.234375 70.09375 C 25.035156 69.894531 24.855469 69.675781 24.699219 69.441406 C 24.539062 69.203125 24.40625 68.953125 24.300781 68.691406 C 24.191406 68.429688 24.109375 68.160156 24.054688 67.882812 C 24 67.605469 23.972656 67.324219 23.972656 67.039062 C 23.972656 66.757812 24 66.476562 24.054688 66.195312 C 24.109375 65.917969 24.191406 65.648438 24.300781 65.386719 C 24.40625 65.125 24.539062 64.875 24.699219 64.640625 C 24.855469 64.402344 25.035156 64.1875 25.234375 63.984375 L 25.613281 63.605469 C 25.929688 63.28125 26.183594 62.921875 26.386719 62.519531 C 26.589844 62.121094 26.726562 61.699219 26.800781 61.257812 C 26.875 60.8125 26.878906 60.371094 26.816406 59.925781 C 26.753906 59.480469 26.628906 59.058594 26.433594 58.652344 C 26.214844 58.167969 26.011719 57.671875 25.835938 57.171875 C 25.683594 56.75 25.472656 56.359375 25.203125 56 C 24.933594 55.644531 24.613281 55.335938 24.25 55.074219 C 23.882812 54.8125 23.488281 54.613281 23.0625 54.472656 C 22.636719 54.335938 22.199219 54.261719 21.75 54.257812 L 21.207031 54.257812 C 20.925781 54.257812 20.644531 54.230469 20.367188 54.175781 C 20.085938 54.117188 19.816406 54.035156 19.554688 53.929688 C 19.292969 53.820312 19.042969 53.6875 18.808594 53.527344 C 18.574219 53.371094 18.355469 53.191406 18.152344 52.992188 C 17.953125 52.789062 17.773438 52.570312 17.617188 52.335938 C 17.460938 52.101562 17.328125 51.851562 17.21875 51.589844 C 17.109375 51.328125 17.027344 51.054688 16.972656 50.777344 C 16.917969 50.5 16.890625 50.21875 16.890625 49.933594 L 16.890625 46.859375 C 16.890625 46.574219 16.917969 46.292969 16.972656 46.015625 C 17.027344 45.734375 17.109375 45.464844 17.21875 45.203125 C 17.328125 44.941406 17.460938 44.691406 17.617188 44.457031 C 17.773438 44.21875 17.953125 44.003906 18.152344 43.800781 C 18.355469 43.601562 18.574219 43.421875 18.808594 43.265625 C 19.042969 43.105469 19.292969 42.972656 19.554688 42.863281 C 19.816406 42.753906 20.085938 42.675781 20.367188 42.617188 C 20.644531 42.5625 20.925781 42.535156 21.207031 42.535156 L 21.75 42.535156 C 22.199219 42.53125 22.636719 42.457031 23.0625 42.320312 C 23.488281 42.179688 23.882812 41.980469 24.25 41.71875 C 24.613281 41.457031 24.933594 41.148438 25.203125 40.792969 C 25.472656 40.433594 25.683594 40.042969 25.835938 39.621094 C 26.011719 39.121094 26.214844 38.625 26.433594 38.140625 C 26.628906 37.734375 26.753906 37.308594 26.816406 36.867188 C 26.878906 36.421875 26.875 35.976562 26.800781 35.535156 C 26.726562 35.09375 26.589844 34.671875 26.386719 34.269531 C 26.183594 33.871094 25.929688 33.511719 25.613281 33.1875 L 25.234375 32.808594 C 25.035156 32.605469 24.855469 32.386719 24.699219 32.152344 C 24.539062 31.917969 24.40625 31.667969 24.300781 31.40625 C 24.191406 31.144531 24.109375 30.875 24.054688 30.59375 C 24 30.316406 23.972656 30.035156 23.972656 29.753906 C 23.972656 29.46875 24 29.1875 24.054688 28.910156 C 24.109375 28.632812 24.191406 28.363281 24.300781 28.101562 C 24.40625 27.835938 24.539062 27.589844 24.699219 27.351562 C 24.855469 27.117188 25.035156 26.898438 25.234375 26.699219 L 27.414062 24.515625 C 27.617188 24.316406 27.835938 24.136719 28.070312 23.976562 C 28.304688 23.820312 28.554688 23.6875 28.816406 23.578125 C 29.078125 23.472656 29.347656 23.390625 29.625 23.332031 C 29.902344 23.277344 30.183594 23.25 30.46875 23.25 C 30.75 23.25 31.03125 23.277344 31.308594 23.332031 C 31.589844 23.390625 31.859375 23.472656 32.121094 23.578125 C 32.382812 23.6875 32.628906 23.820312 32.867188 23.976562 C 33.101562 24.136719 33.320312 24.316406 33.519531 24.515625 L 33.902344 24.894531 C 34.222656 25.207031 34.582031 25.464844 34.984375 25.667969 C 35.382812 25.871094 35.804688 26.007812 36.246094 26.082031 C 36.6875 26.15625 37.132812 26.160156 37.578125 26.097656 C 38.019531 26.035156 38.445312 25.910156 38.851562 25.714844 C 39.332031 25.496094 39.832031 25.292969 40.328125 25.117188 C 40.75 24.964844 41.140625 24.753906 41.5 24.484375 C 41.855469 24.210938 42.164062 23.894531 42.425781 23.527344 C 42.6875 23.164062 42.886719 22.769531 43.023438 22.339844 C 43.164062 21.914062 43.238281 21.476562 43.242188 21.027344 L 43.242188 20.484375 C 43.242188 20.203125 43.269531 19.921875 43.324219 19.640625 C 43.378906 19.363281 43.460938 19.09375 43.570312 18.832031 C 43.679688 18.570312 43.8125 18.320312 43.96875 18.085938 C 44.125 17.847656 44.304688 17.628906 44.507812 17.429688 C 44.707031 17.226562 44.925781 17.050781 45.160156 16.890625 C 45.398438 16.734375 45.644531 16.601562 45.90625 16.492188 C 46.167969 16.382812 46.441406 16.300781 46.71875 16.246094 C 46.996094 16.191406 47.277344 16.164062 47.5625 16.164062 L 50.636719 16.164062 C 50.917969 16.164062 51.199219 16.191406 51.476562 16.246094 C 51.757812 16.300781 52.027344 16.382812 52.289062 16.492188 C 52.550781 16.601562 52.800781 16.734375 53.035156 16.890625 C 53.269531 17.050781 53.488281 17.226562 53.691406 17.429688 C 53.890625 17.628906 54.070312 17.847656 54.226562 18.085938 C 54.382812 18.320312 54.515625 18.570312 54.625 18.832031 C 54.734375 19.09375 54.816406 19.363281 54.871094 19.640625 C 54.925781 19.921875 54.953125 20.203125 54.953125 20.484375 L 54.953125 21.027344 C 54.960938 21.476562 55.03125 21.914062 55.171875 22.339844 C 55.308594 22.769531 55.511719 23.164062 55.769531 23.527344 C 56.03125 23.894531 56.339844 24.210938 56.699219 24.484375 C 57.054688 24.753906 57.445312 24.964844 57.867188 25.117188 C 58.367188 25.292969 58.863281 25.496094 59.347656 25.714844 C 59.75 25.910156 60.175781 26.035156 60.621094 26.097656 C 61.0625 26.160156 61.507812 26.15625 61.949219 26.082031 C 62.390625 26.007812 62.8125 25.871094 63.210938 25.667969 C 63.613281 25.464844 63.972656 25.207031 64.292969 24.894531 L 64.675781 24.515625 C 64.875 24.316406 65.09375 24.136719 65.328125 23.976562 C 65.566406 23.820312 65.8125 23.6875 66.074219 23.578125 C 66.335938 23.472656 66.609375 23.390625 66.886719 23.332031 C 67.164062 23.277344 67.445312 23.25 67.726562 23.25 C 68.011719 23.25 68.292969 23.277344 68.570312 23.332031 C 68.847656 23.390625 69.117188 23.472656 69.378906 23.578125 C 69.640625 23.6875 69.890625 23.820312 70.125 23.976562 C 70.363281 24.136719 70.578125 24.316406 70.78125 24.515625 L 72.960938 26.699219 C 73.160156 26.898438 73.339844 27.117188 73.496094 27.351562 C 73.65625 27.589844 73.789062 27.835938 73.894531 28.101562 C 74.003906 28.363281 74.085938 28.632812 74.140625 28.910156 C 74.195312 29.1875 74.222656 29.46875 74.222656 29.753906 C 74.222656 30.035156 74.195312 30.316406 74.140625 30.59375 C 74.085938 30.875 74.003906 31.144531 73.894531 31.40625 C 73.789062 31.667969 73.65625 31.917969 73.496094 32.152344 C 73.339844 32.386719 73.160156 32.605469 72.960938 32.808594 L 72.582031 33.1875 C 72.269531 33.511719 72.011719 33.871094 71.808594 34.269531 C 71.605469 34.671875 71.46875 35.09375 71.394531 35.535156 C 71.320312 35.976562 71.316406 36.421875 71.378906 36.867188 C 71.441406 37.308594 71.570312 37.734375 71.761719 38.140625 C 71.980469 38.625 72.1875 39.121094 72.363281 39.621094 C 72.511719 40.042969 72.722656 40.433594 72.992188 40.792969 C 73.265625 41.148438 73.582031 41.457031 73.945312 41.71875 C 74.3125 41.980469 74.707031 42.179688 75.132812 42.320312 C 75.558594 42.457031 75.996094 42.53125 76.445312 42.535156 L 76.988281 42.535156 C 77.269531 42.535156 77.550781 42.5625 77.832031 42.617188 C 78.109375 42.675781 78.378906 42.753906 78.640625 42.863281 C 78.902344 42.972656 79.152344 43.105469 79.386719 43.265625 C 79.625 43.421875 79.839844 43.601562 80.042969 43.800781 C 80.242188 44.003906 80.421875 44.21875 80.578125 44.457031 C 80.738281 44.691406 80.871094 44.941406 80.976562 45.203125 C 81.085938 45.464844 81.167969 45.734375 81.222656 46.015625 C 81.277344 46.292969 81.308594 46.574219 81.304688 46.859375 Z M 65.203125 48.394531 C 65.203125 47.867188 65.175781 47.34375 65.125 46.816406 C 65.074219 46.292969 64.996094 45.769531 64.894531 45.253906 C 64.789062 44.734375 64.660156 44.222656 64.507812 43.71875 C 64.355469 43.210938 64.179688 42.714844 63.976562 42.230469 C 63.773438 41.742188 63.550781 41.265625 63.300781 40.800781 C 63.050781 40.332031 62.78125 39.882812 62.488281 39.441406 C 62.195312 39.003906 61.882812 38.582031 61.546875 38.171875 C 61.210938 37.765625 60.859375 37.375 60.484375 37 C 60.113281 36.628906 59.722656 36.273438 59.316406 35.9375 C 58.90625 35.601562 58.484375 35.289062 58.046875 34.996094 C 57.605469 34.703125 57.15625 34.433594 56.691406 34.183594 C 56.222656 33.933594 55.75 33.707031 55.261719 33.507812 C 54.773438 33.304688 54.277344 33.128906 53.773438 32.972656 C 53.269531 32.820312 52.757812 32.691406 52.238281 32.589844 C 51.722656 32.488281 51.203125 32.410156 50.675781 32.359375 C 50.152344 32.304688 49.625 32.28125 49.097656 32.28125 C 48.570312 32.28125 48.042969 32.304688 47.519531 32.359375 C 46.996094 32.410156 46.472656 32.488281 45.957031 32.589844 C 45.4375 32.691406 44.929688 32.820312 44.421875 32.972656 C 43.917969 33.128906 43.421875 33.304688 42.933594 33.507812 C 42.449219 33.707031 41.972656 33.933594 41.507812 34.183594 C 41.042969 34.433594 40.589844 34.703125 40.152344 34.996094 C 39.710938 35.289062 39.289062 35.601562 38.882812 35.9375 C 38.472656 36.273438 38.082031 36.628906 37.710938 37 C 37.335938 37.375 36.984375 37.765625 36.648438 38.171875 C 36.316406 38.582031 36 39.003906 35.707031 39.441406 C 35.414062 39.882812 35.144531 40.332031 34.894531 40.800781 C 34.648438 41.265625 34.421875 41.742188 34.21875 42.230469 C 34.019531 42.714844 33.839844 43.210938 33.6875 43.71875 C 33.535156 44.222656 33.40625 44.734375 33.304688 45.253906 C 33.199219 45.769531 33.121094 46.292969 33.070312 46.816406 C 33.019531 47.34375 32.992188 47.867188 32.992188 48.394531 C 32.992188 48.925781 33.019531 49.449219 33.070312 49.976562 C 33.121094 50.5 33.199219 51.023438 33.304688 51.539062 C 33.40625 52.058594 33.535156 52.570312 33.6875 53.074219 C 33.839844 53.578125 34.019531 54.074219 34.21875 54.5625 C 34.421875 55.050781 34.648438 55.527344 34.894531 55.992188 C 35.144531 56.457031 35.414062 56.910156 35.707031 57.351562 C 36 57.789062 36.316406 58.210938 36.648438 58.621094 C 36.984375 59.027344 37.335938 59.417969 37.710938 59.792969 C 38.082031 60.164062 38.472656 60.519531 38.882812 60.855469 C 39.289062 61.1875 39.710938 61.503906 40.152344 61.796875 C 40.589844 62.089844 41.042969 62.359375 41.507812 62.609375 C 41.972656 62.859375 42.449219 63.082031 42.933594 63.285156 C 43.421875 63.488281 43.917969 63.664062 44.421875 63.820312 C 44.929688 63.972656 45.4375 64.101562 45.957031 64.203125 C 46.472656 64.304688 46.996094 64.382812 47.519531 64.433594 C 48.042969 64.488281 48.570312 64.511719 49.097656 64.511719 C 49.625 64.511719 50.152344 64.488281 50.675781 64.4375 C 51.203125 64.382812 51.722656 64.308594 52.242188 64.203125 C 52.757812 64.101562 53.269531 63.972656 53.773438 63.820312 C 54.277344 63.667969 54.773438 63.488281 55.261719 63.289062 C 55.75 63.085938 56.226562 62.859375 56.691406 62.613281 C 57.15625 62.363281 57.609375 62.09375 58.046875 61.800781 C 58.484375 61.507812 58.910156 61.191406 59.316406 60.855469 C 59.726562 60.523438 60.113281 60.167969 60.488281 59.792969 C 60.859375 59.421875 61.214844 59.03125 61.550781 58.621094 C 61.882812 58.214844 62.199219 57.792969 62.492188 57.351562 C 62.785156 56.914062 63.054688 56.460938 63.304688 55.996094 C 63.550781 55.53125 63.777344 55.054688 63.980469 54.566406 C 64.179688 54.078125 64.359375 53.582031 64.511719 53.074219 C 64.664062 52.570312 64.792969 52.058594 64.894531 51.539062 C 64.996094 51.023438 65.074219 50.5 65.125 49.976562 C 65.175781 49.449219 65.203125 48.925781 65.203125 48.394531 Z M 65.203125 48.394531 " fill-opacity="1" fill-rule="nonzero"/><path fill="#d3d9f2" d="M 76.988281 49.863281 L 76.445312 49.863281 C 75.996094 49.867188 75.558594 49.9375 75.132812 50.078125 C 74.707031 50.21875 74.3125 50.417969 73.945312 50.679688 C 73.582031 50.9375 73.265625 51.246094 72.992188 51.605469 C 72.722656 51.964844 72.511719 52.355469 72.363281 52.777344 C 72.1875 53.273438 71.980469 53.773438 71.761719 54.257812 C 71.460938 54.902344 71.324219 55.582031 71.351562 56.296875 C 71.375 57.007812 71.5625 57.675781 71.90625 58.300781 C 72.070312 57.925781 72.230469 57.550781 72.363281 57.171875 C 72.515625 56.75 72.726562 56.359375 72.996094 56 C 73.265625 55.644531 73.582031 55.335938 73.949219 55.074219 C 74.3125 54.8125 74.707031 54.613281 75.132812 54.472656 C 75.5625 54.335938 75.996094 54.261719 76.445312 54.257812 L 76.988281 54.257812 C 77.269531 54.257812 77.550781 54.230469 77.832031 54.175781 C 78.109375 54.117188 78.378906 54.035156 78.640625 53.929688 C 78.902344 53.820312 79.152344 53.6875 79.386719 53.527344 C 79.625 53.371094 79.839844 53.191406 80.042969 52.992188 C 80.242188 52.789062 80.421875 52.570312 80.578125 52.335938 C 80.738281 52.101562 80.871094 51.851562 80.976562 51.589844 C 81.085938 51.328125 81.167969 51.054688 81.222656 50.777344 C 81.277344 50.5 81.308594 50.21875 81.304688 49.933594 L 81.304688 46.859375 C 81.300781 46.636719 81.277344 46.417969 81.242188 46.199219 C 81.164062 46.707031 81 47.1875 80.75 47.636719 C 80.503906 48.089844 80.183594 48.484375 79.792969 48.820312 C 79.402344 49.15625 78.964844 49.414062 78.484375 49.589844 C 78 49.769531 77.503906 49.859375 76.988281 49.863281 Z M 76.988281 49.863281 " fill-opacity="1" fill-rule="nonzero"/><path fill="#d3d9f2" d="M 25.613281 28.792969 L 25.234375 28.410156 C 24.984375 28.152344 24.765625 27.867188 24.585938 27.554688 C 24.34375 27.964844 24.171875 28.40625 24.070312 28.875 C 23.972656 29.34375 23.953125 29.816406 24.011719 30.292969 C 24.070312 30.769531 24.203125 31.222656 24.414062 31.652344 C 24.625 32.082031 24.898438 32.46875 25.234375 32.808594 L 25.613281 33.1875 C 25.882812 33.460938 26.105469 33.761719 26.292969 34.097656 C 26.34375 33.980469 26.382812 33.859375 26.4375 33.746094 C 26.628906 33.339844 26.757812 32.914062 26.820312 32.46875 C 26.882812 32.027344 26.875 31.582031 26.800781 31.140625 C 26.730469 30.699219 26.589844 30.277344 26.386719 29.875 C 26.1875 29.476562 25.929688 29.113281 25.613281 28.792969 Z M 25.613281 28.792969 " fill-opacity="1" fill-rule="nonzero"/><path fill="#d3d9f2" d="M 70.78125 67.882812 C 70.578125 68.082031 70.363281 68.261719 70.125 68.417969 C 69.890625 68.578125 69.640625 68.710938 69.378906 68.816406 C 69.117188 68.925781 68.847656 69.007812 68.570312 69.0625 C 68.292969 69.117188 68.011719 69.144531 67.726562 69.144531 C 67.445312 69.144531 67.164062 69.117188 66.886719 69.0625 C 66.609375 69.007812 66.335938 68.925781 66.074219 68.816406 C 65.8125 68.710938 65.566406 68.578125 65.328125 68.417969 C 65.09375 68.261719 64.875 68.082031 64.675781 67.882812 L 64.292969 67.5 C 63.972656 67.1875 63.613281 66.929688 63.210938 66.726562 C 62.8125 66.527344 62.390625 66.386719 61.949219 66.316406 C 61.507812 66.242188 61.0625 66.234375 60.621094 66.296875 C 60.175781 66.359375 59.75 66.488281 59.347656 66.679688 C 58.863281 66.902344 58.367188 67.105469 57.867188 67.28125 C 57.445312 67.433594 57.054688 67.644531 56.699219 67.914062 C 56.339844 68.183594 56.03125 68.503906 55.769531 68.867188 C 55.511719 69.234375 55.308594 69.628906 55.171875 70.054688 C 55.03125 70.484375 54.960938 70.921875 54.953125 71.371094 L 54.953125 71.910156 C 54.953125 72.195312 54.925781 72.476562 54.871094 72.753906 C 54.816406 73.03125 54.734375 73.304688 54.625 73.566406 C 54.515625 73.828125 54.382812 74.078125 54.226562 74.3125 C 54.070312 74.550781 53.890625 74.765625 53.691406 74.96875 C 53.488281 75.167969 53.269531 75.347656 53.035156 75.503906 C 52.800781 75.664062 52.550781 75.796875 52.289062 75.90625 C 52.027344 76.011719 51.757812 76.09375 51.476562 76.152344 C 51.199219 76.207031 50.917969 76.234375 50.636719 76.234375 L 47.5625 76.234375 C 47.277344 76.234375 46.996094 76.207031 46.71875 76.152344 C 46.441406 76.09375 46.167969 76.011719 45.90625 75.90625 C 45.644531 75.796875 45.398438 75.664062 45.160156 75.503906 C 44.925781 75.347656 44.707031 75.167969 44.507812 74.96875 C 44.304688 74.765625 44.125 74.550781 43.96875 74.3125 C 43.8125 74.078125 43.679688 73.828125 43.570312 73.566406 C 43.460938 73.304688 43.378906 73.03125 43.324219 72.753906 C 43.269531 72.476562 43.242188 72.195312 43.242188 71.910156 L 43.242188 71.371094 C 43.238281 70.921875 43.164062 70.484375 43.023438 70.054688 C 42.886719 69.628906 42.6875 69.234375 42.425781 68.867188 C 42.164062 68.503906 41.855469 68.183594 41.5 67.914062 C 41.140625 67.644531 40.75 67.433594 40.328125 67.28125 C 39.832031 67.105469 39.332031 66.902344 38.851562 66.679688 C 38.445312 66.488281 38.019531 66.359375 37.578125 66.296875 C 37.132812 66.234375 36.6875 66.242188 36.246094 66.316406 C 35.804688 66.386719 35.382812 66.527344 34.984375 66.726562 C 34.582031 66.929688 34.222656 67.1875 33.902344 67.5 L 33.519531 67.882812 C 33.320312 68.082031 33.101562 68.261719 32.867188 68.417969 C 32.628906 68.578125 32.382812 68.710938 32.121094 68.816406 C 31.859375 68.925781 31.589844 69.007812 31.308594 69.0625 C 31.03125 69.117188 30.75 69.144531 30.46875 69.144531 C 30.183594 69.144531 29.902344 69.117188 29.625 69.0625 C 29.347656 69.007812 29.078125 68.925781 28.816406 68.816406 C 28.554688 68.710938 28.304688 68.578125 28.070312 68.417969 C 27.835938 68.261719 27.617188 68.082031 27.414062 67.882812 L 25.234375 65.699219 C 24.984375 65.441406 24.765625 65.15625 24.585938 64.84375 C 24.34375 65.253906 24.171875 65.695312 24.070312 66.164062 C 23.972656 66.632812 23.953125 67.105469 24.011719 67.578125 C 24.070312 68.054688 24.203125 68.507812 24.414062 68.9375 C 24.625 69.371094 24.898438 69.753906 25.234375 70.09375 L 27.414062 72.277344 C 27.617188 72.476562 27.835938 72.65625 28.070312 72.8125 C 28.304688 72.972656 28.554688 73.105469 28.816406 73.214844 C 29.078125 73.320312 29.347656 73.402344 29.625 73.457031 C 29.902344 73.515625 30.183594 73.542969 30.46875 73.542969 C 30.75 73.542969 31.03125 73.515625 31.308594 73.457031 C 31.589844 73.402344 31.859375 73.320312 32.121094 73.214844 C 32.382812 73.105469 32.628906 72.972656 32.867188 72.8125 C 33.101562 72.65625 33.320312 72.476562 33.519531 72.277344 L 33.902344 71.898438 C 34.222656 71.582031 34.582031 71.324219 34.984375 71.125 C 35.382812 70.921875 35.804688 70.785156 36.246094 70.710938 C 36.6875 70.636719 37.132812 70.632812 37.578125 70.695312 C 38.019531 70.757812 38.445312 70.882812 38.851562 71.078125 C 39.332031 71.296875 39.832031 71.5 40.328125 71.675781 C 40.75 71.828125 41.140625 72.039062 41.5 72.308594 C 41.855469 72.582031 42.164062 72.898438 42.425781 73.261719 C 42.6875 73.628906 42.886719 74.023438 43.023438 74.453125 C 43.164062 74.878906 43.238281 75.316406 43.242188 75.765625 L 43.242188 76.308594 C 43.242188 76.589844 43.269531 76.871094 43.324219 77.148438 C 43.378906 77.429688 43.460938 77.699219 43.570312 77.960938 C 43.679688 78.222656 43.8125 78.472656 43.96875 78.707031 C 44.125 78.945312 44.304688 79.164062 44.507812 79.363281 C 44.707031 79.5625 44.925781 79.742188 45.160156 79.902344 C 45.398438 80.058594 45.644531 80.191406 45.90625 80.300781 C 46.167969 80.410156 46.441406 80.492188 46.71875 80.546875 C 46.996094 80.601562 47.277344 80.628906 47.5625 80.628906 L 50.636719 80.628906 C 50.917969 80.628906 51.199219 80.601562 51.476562 80.546875 C 51.757812 80.492188 52.027344 80.410156 52.289062 80.300781 C 52.550781 80.191406 52.800781 80.058594 53.035156 79.902344 C 53.269531 79.742188 53.488281 79.5625 53.691406 79.363281 C 53.890625 79.164062 54.070312 78.945312 54.226562 78.707031 C 54.382812 78.472656 54.515625 78.222656 54.625 77.960938 C 54.734375 77.699219 54.816406 77.429688 54.871094 77.148438 C 54.925781 76.871094 54.953125 76.589844 54.953125 76.308594 L 54.953125 75.765625 C 54.960938 75.316406 55.03125 74.878906 55.171875 74.453125 C 55.308594 74.023438 55.511719 73.628906 55.769531 73.261719 C 56.03125 72.898438 56.339844 72.582031 56.699219 72.308594 C 57.054688 72.039062 57.445312 71.828125 57.867188 71.675781 C 58.367188 71.5 58.863281 71.296875 59.347656 71.078125 C 59.75 70.882812 60.175781 70.757812 60.621094 70.695312 C 61.0625 70.632812 61.507812 70.636719 61.949219 70.710938 C 62.390625 70.785156 62.8125 70.921875 63.210938 71.125 C 63.613281 71.324219 63.972656 71.582031 64.292969 71.898438 L 64.675781 72.277344 C 64.875 72.476562 65.09375 72.65625 65.328125 72.8125 C 65.566406 72.972656 65.8125 73.105469 66.074219 73.214844 C 66.335938 73.320312 66.609375 73.402344 66.886719 73.457031 C 67.164062 73.515625 67.445312 73.542969 67.726562 73.542969 C 68.011719 73.542969 68.292969 73.515625 68.570312 73.457031 C 68.847656 73.402344 69.117188 73.320312 69.378906 73.214844 C 69.640625 73.105469 69.890625 72.972656 70.125 72.8125 C 70.363281 72.65625 70.578125 72.476562 70.78125 72.277344 L 72.960938 70.09375 C 73.300781 69.753906 73.574219 69.371094 73.78125 68.9375 C 73.992188 68.507812 74.125 68.054688 74.183594 67.578125 C 74.242188 67.105469 74.222656 66.632812 74.125 66.164062 C 74.027344 65.695312 73.855469 65.253906 73.609375 64.84375 C 73.429688 65.15625 73.214844 65.441406 72.960938 65.699219 Z M 70.78125 67.882812 " fill-opacity="1" fill-rule="nonzero"/><path fill="#d3d9f2" d="M 72.582031 28.792969 C 72.269531 29.113281 72.011719 29.476562 71.808594 29.875 C 71.605469 30.277344 71.46875 30.699219 71.394531 31.140625 C 71.320312 31.582031 71.316406 32.027344 71.378906 32.472656 C 71.441406 32.914062 71.570312 33.339844 71.761719 33.746094 C 71.8125 33.859375 71.851562 33.980469 71.90625 34.097656 C 72.089844 33.761719 72.316406 33.460938 72.582031 33.1875 L 72.964844 32.808594 C 73.300781 32.46875 73.574219 32.082031 73.785156 31.652344 C 73.996094 31.222656 74.128906 30.769531 74.1875 30.292969 C 74.246094 29.816406 74.226562 29.34375 74.128906 28.875 C 74.027344 28.40625 73.855469 27.964844 73.613281 27.554688 C 73.433594 27.867188 73.214844 28.152344 72.964844 28.410156 Z M 72.582031 28.792969 " fill-opacity="1" fill-rule="nonzero"/><path fill="#d3d9f2" d="M 26.433594 54.257812 C 26.214844 53.773438 26.011719 53.273438 25.835938 52.777344 C 25.683594 52.355469 25.472656 51.964844 25.203125 51.605469 C 24.933594 51.246094 24.613281 50.9375 24.25 50.679688 C 23.882812 50.417969 23.488281 50.21875 23.0625 50.078125 C 22.636719 49.9375 22.199219 49.867188 21.75 49.863281 L 21.207031 49.863281 C 20.695312 49.859375 20.195312 49.769531 19.714844 49.589844 C 19.234375 49.410156 18.796875 49.152344 18.410156 48.816406 C 18.019531 48.480469 17.699219 48.085938 17.453125 47.636719 C 17.203125 47.1875 17.039062 46.707031 16.960938 46.199219 C 16.925781 46.417969 16.902344 46.636719 16.898438 46.859375 L 16.898438 49.933594 C 16.898438 50.21875 16.925781 50.5 16.980469 50.777344 C 17.035156 51.054688 17.117188 51.324219 17.222656 51.585938 C 17.332031 51.847656 17.464844 52.097656 17.621094 52.332031 C 17.78125 52.570312 17.957031 52.789062 18.160156 52.988281 C 18.359375 53.1875 18.578125 53.367188 18.8125 53.527344 C 19.046875 53.683594 19.296875 53.816406 19.558594 53.925781 C 19.820312 54.035156 20.089844 54.117188 20.367188 54.171875 C 20.644531 54.226562 20.925781 54.257812 21.207031 54.257812 L 21.75 54.257812 C 22.199219 54.261719 22.636719 54.335938 23.0625 54.472656 C 23.488281 54.613281 23.882812 54.8125 24.25 55.074219 C 24.613281 55.335938 24.933594 55.644531 25.203125 56 C 25.472656 56.359375 25.683594 56.75 25.835938 57.171875 C 25.96875 57.550781 26.128906 57.925781 26.292969 58.300781 C 26.636719 57.675781 26.820312 57.007812 26.847656 56.296875 C 26.871094 55.582031 26.734375 54.902344 26.433594 54.257812 Z M 26.433594 54.257812 " fill-opacity="1" fill-rule="nonzero"/><path fill="#00abd1" d="M 64.675781 72.277344 L 64.292969 71.898438 C 63.972656 71.582031 63.613281 71.324219 63.210938 71.125 C 62.8125 70.921875 62.390625 70.785156 61.949219 70.710938 C 61.507812 70.636719 61.0625 70.632812 60.621094 70.695312 C 60.175781 70.757812 59.75 70.882812 59.347656 71.078125 C 58.863281 71.296875 58.367188 71.5 57.867188 71.675781 C 57.472656 71.820312 57.101562 72.019531 56.761719 72.269531 C 56.421875 72.519531 56.125 72.808594 55.867188 73.144531 C 55.613281 73.480469 55.410156 73.847656 55.257812 74.242188 C 55.105469 74.632812 55.011719 75.042969 54.980469 75.460938 C 55.382812 75.273438 55.804688 75.148438 56.246094 75.089844 C 56.6875 75.027344 57.128906 75.035156 57.570312 75.109375 C 58.007812 75.183594 58.429688 75.320312 58.828125 75.523438 C 59.222656 75.726562 59.582031 75.980469 59.902344 76.292969 L 60.28125 76.671875 C 60.484375 76.875 60.703125 77.050781 60.9375 77.210938 C 61.171875 77.367188 61.421875 77.5 61.683594 77.609375 C 61.945312 77.71875 62.214844 77.796875 62.492188 77.855469 C 62.773438 77.910156 63.050781 77.9375 63.335938 77.9375 C 63.617188 77.9375 63.898438 77.910156 64.175781 77.855469 C 64.457031 77.796875 64.726562 77.71875 64.988281 77.609375 C 65.25 77.5 65.496094 77.367188 65.734375 77.210938 C 65.96875 77.050781 66.1875 76.875 66.386719 76.671875 L 68.570312 74.488281 C 68.949219 74.105469 69.246094 73.667969 69.460938 73.171875 C 69.0625 73.347656 68.648438 73.460938 68.214844 73.507812 C 67.785156 73.558594 67.355469 73.542969 66.929688 73.464844 C 66.503906 73.382812 66.097656 73.242188 65.710938 73.042969 C 65.328125 72.839844 64.984375 72.585938 64.675781 72.277344 Z M 64.675781 72.277344 " fill-opacity="1" fill-rule="nonzero"/><path fill="#00abd1" d="M 40.328125 25.117188 C 40.75 24.964844 41.140625 24.753906 41.5 24.484375 C 41.855469 24.210938 42.164062 23.894531 42.425781 23.527344 C 42.6875 23.164062 42.886719 22.769531 43.023438 22.339844 C 43.164062 21.914062 43.238281 21.476562 43.242188 21.027344 L 43.242188 20.558594 L 43.167969 20.558594 C 42.886719 20.558594 42.605469 20.585938 42.324219 20.640625 C 42.046875 20.695312 41.777344 20.777344 41.515625 20.886719 C 41.253906 20.996094 41.003906 21.128906 40.769531 21.285156 C 40.53125 21.445312 40.316406 21.625 40.113281 21.824219 C 39.914062 22.023438 39.734375 22.242188 39.578125 22.480469 C 39.417969 22.714844 39.285156 22.964844 39.179688 23.226562 C 39.070312 23.488281 38.988281 23.757812 38.933594 24.039062 C 38.878906 24.316406 38.851562 24.597656 38.851562 24.882812 L 38.851562 25.421875 C 38.851562 25.527344 38.832031 25.625 38.828125 25.726562 L 38.851562 25.714844 C 39.332031 25.496094 39.832031 25.292969 40.328125 25.117188 Z M 40.328125 25.117188 " fill-opacity="1" fill-rule="nonzero"/><path fill="#00abd1" d="M 25.835938 39.621094 C 26.011719 39.121094 26.214844 38.625 26.433594 38.140625 C 26.628906 37.734375 26.753906 37.308594 26.816406 36.867188 C 26.878906 36.421875 26.875 35.976562 26.800781 35.535156 C 26.726562 35.09375 26.589844 34.671875 26.386719 34.269531 C 26.183594 33.871094 25.929688 33.511719 25.613281 33.1875 L 25.234375 32.808594 C 24.929688 32.5 24.675781 32.152344 24.472656 31.769531 C 24.269531 31.382812 24.128906 30.976562 24.050781 30.550781 C 23.96875 30.125 23.957031 29.695312 24.007812 29.261719 C 24.054688 28.832031 24.167969 28.417969 24.34375 28.019531 C 23.847656 28.234375 23.410156 28.53125 23.027344 28.910156 L 20.84375 31.09375 C 20.640625 31.292969 20.464844 31.511719 20.304688 31.75 C 20.148438 31.984375 20.015625 32.234375 19.90625 32.496094 C 19.800781 32.757812 19.71875 33.027344 19.664062 33.304688 C 19.605469 33.582031 19.578125 33.863281 19.578125 34.148438 C 19.578125 34.429688 19.605469 34.710938 19.664062 34.992188 C 19.71875 35.269531 19.800781 35.539062 19.90625 35.800781 C 20.015625 36.0625 20.148438 36.3125 20.304688 36.546875 C 20.464844 36.785156 20.640625 37.003906 20.84375 37.203125 L 21.222656 37.582031 C 21.535156 37.902344 21.789062 38.261719 21.992188 38.660156 C 22.191406 39.058594 22.332031 39.476562 22.40625 39.917969 C 22.480469 40.359375 22.484375 40.800781 22.425781 41.242188 C 22.367188 41.683594 22.242188 42.105469 22.050781 42.511719 C 22.472656 42.476562 22.878906 42.382812 23.273438 42.230469 C 23.667969 42.082031 24.03125 41.878906 24.367188 41.621094 C 24.703125 41.363281 24.996094 41.066406 25.246094 40.726562 C 25.492188 40.386719 25.691406 40.015625 25.835938 39.621094 Z M 25.835938 39.621094 " fill-opacity="1" fill-rule="nonzero"/><path fill="#00abd1" d="M 72.363281 57.171875 C 72.1875 57.671875 71.980469 58.167969 71.761719 58.652344 L 71.753906 58.675781 C 71.851562 58.667969 71.953125 58.652344 72.054688 58.652344 L 72.59375 58.652344 C 72.878906 58.652344 73.160156 58.625 73.4375 58.570312 C 73.714844 58.515625 73.988281 58.433594 74.25 58.324219 C 74.511719 58.214844 74.757812 58.082031 74.996094 57.925781 C 75.230469 57.765625 75.449219 57.585938 75.648438 57.386719 C 75.851562 57.1875 76.03125 56.96875 76.1875 56.730469 C 76.34375 56.496094 76.476562 56.246094 76.585938 55.984375 C 76.695312 55.722656 76.777344 55.453125 76.832031 55.171875 C 76.886719 54.894531 76.914062 54.613281 76.914062 54.328125 L 76.914062 54.257812 L 76.445312 54.257812 C 75.996094 54.261719 75.558594 54.335938 75.132812 54.472656 C 74.707031 54.613281 74.3125 54.8125 73.945312 55.074219 C 73.582031 55.335938 73.265625 55.644531 72.992188 56 C 72.722656 56.359375 72.511719 56.75 72.363281 57.171875 Z M 72.363281 57.171875 " fill-opacity="1" fill-rule="nonzero"/><path fill="#00abd1" d="M 43.242188 76.308594 L 43.242188 75.765625 C 43.238281 75.316406 43.164062 74.878906 43.023438 74.453125 C 42.886719 74.023438 42.6875 73.628906 42.425781 73.261719 C 42.164062 72.898438 41.855469 72.582031 41.5 72.308594 C 41.140625 72.039062 40.75 71.828125 40.328125 71.675781 C 39.832031 71.5 39.332031 71.296875 38.851562 71.078125 C 38.445312 70.882812 38.019531 70.757812 37.578125 70.695312 C 37.132812 70.632812 36.6875 70.636719 36.246094 70.710938 C 35.804688 70.785156 35.382812 70.921875 34.984375 71.125 C 34.582031 71.324219 34.222656 71.582031 33.902344 71.898438 L 33.519531 72.277344 C 33.320312 72.476562 33.101562 72.65625 32.867188 72.8125 C 32.628906 72.972656 32.382812 73.105469 32.121094 73.214844 C 31.859375 73.320312 31.589844 73.402344 31.308594 73.457031 C 31.03125 73.515625 30.75 73.542969 30.46875 73.542969 C 30.183594 73.542969 29.902344 73.515625 29.625 73.457031 C 29.347656 73.402344 29.078125 73.320312 28.816406 73.214844 C 28.554688 73.105469 28.304688 72.972656 28.070312 72.8125 C 27.835938 72.65625 27.617188 72.476562 27.414062 72.277344 L 25.234375 70.09375 C 25.035156 69.894531 24.855469 69.675781 24.699219 69.441406 C 24.539062 69.203125 24.40625 68.953125 24.300781 68.691406 C 24.191406 68.429688 24.109375 68.160156 24.054688 67.882812 C 24 67.605469 23.972656 67.324219 23.972656 67.039062 C 23.972656 66.757812 24 66.476562 24.054688 66.195312 C 24.109375 65.917969 24.191406 65.648438 24.300781 65.386719 C 24.40625 65.125 24.539062 64.875 24.699219 64.640625 C 24.855469 64.402344 25.035156 64.1875 25.234375 63.984375 L 25.613281 63.605469 C 25.929688 63.28125 26.183594 62.921875 26.386719 62.519531 C 26.589844 62.121094 26.726562 61.699219 26.800781 61.257812 C 26.875 60.8125 26.878906 60.371094 26.816406 59.925781 C 26.753906 59.480469 26.628906 59.058594 26.433594 58.652344 C 26.214844 58.167969 26.011719 57.671875 25.835938 57.171875 C 25.683594 56.75 25.472656 56.359375 25.203125 56 C 24.933594 55.644531 24.613281 55.335938 24.25 55.074219 C 23.882812 54.8125 23.488281 54.613281 23.0625 54.472656 C 22.636719 54.335938 22.199219 54.261719 21.75 54.257812 L 21.207031 54.257812 C 20.925781 54.257812 20.644531 54.230469 20.367188 54.175781 C 20.085938 54.117188 19.816406 54.035156 19.554688 53.929688 C 19.292969 53.820312 19.042969 53.6875 18.808594 53.527344 C 18.574219 53.371094 18.355469 53.191406 18.152344 52.992188 C 17.953125 52.789062 17.773438 52.570312 17.617188 52.335938 C 17.460938 52.101562 17.328125 51.851562 17.21875 51.589844 C 17.109375 51.328125 17.027344 51.054688 16.972656 50.777344 C 16.917969 50.5 16.890625 50.21875 16.890625 49.933594 L 16.890625 46.929688 L 16.816406 46.929688 C 16.53125 46.929688 16.25 46.957031 15.972656 47.015625 C 15.695312 47.070312 15.425781 47.152344 15.164062 47.261719 C 14.902344 47.367188 14.652344 47.5 14.417969 47.660156 C 14.179688 47.816406 13.960938 47.996094 13.761719 48.195312 C 13.5625 48.398438 13.382812 48.617188 13.226562 48.851562 C 13.066406 49.085938 12.933594 49.335938 12.824219 49.597656 C 12.71875 49.859375 12.636719 50.132812 12.582031 50.410156 C 12.523438 50.6875 12.496094 50.96875 12.496094 51.253906 L 12.496094 54.328125 C 12.496094 54.613281 12.523438 54.894531 12.582031 55.171875 C 12.636719 55.453125 12.71875 55.722656 12.824219 55.984375 C 12.933594 56.246094 13.066406 56.496094 13.226562 56.730469 C 13.382812 56.96875 13.5625 57.1875 13.761719 57.386719 C 13.960938 57.585938 14.179688 57.765625 14.417969 57.925781 C 14.652344 58.082031 14.902344 58.214844 15.164062 58.324219 C 15.425781 58.433594 15.695312 58.515625 15.972656 58.570312 C 16.25 58.625 16.53125 58.652344 16.816406 58.652344 L 17.359375 58.652344 C 17.804688 58.65625 18.242188 58.730469 18.671875 58.867188 C 19.097656 59.007812 19.492188 59.207031 19.855469 59.46875 C 20.222656 59.730469 20.539062 60.039062 20.808594 60.398438 C 21.082031 60.753906 21.292969 61.144531 21.441406 61.566406 C 21.617188 62.066406 21.824219 62.5625 22.042969 63.046875 C 22.234375 63.453125 22.363281 63.878906 22.425781 64.320312 C 22.488281 64.765625 22.480469 65.210938 22.410156 65.652344 C 22.335938 66.09375 22.199219 66.515625 21.996094 66.917969 C 21.792969 67.316406 21.535156 67.679688 21.222656 68 L 20.84375 68.378906 C 20.640625 68.582031 20.464844 68.800781 20.304688 69.035156 C 20.148438 69.269531 20.015625 69.519531 19.90625 69.78125 C 19.800781 70.042969 19.71875 70.3125 19.664062 70.59375 C 19.605469 70.871094 19.578125 71.152344 19.578125 71.433594 C 19.578125 71.71875 19.605469 72 19.664062 72.277344 C 19.71875 72.554688 19.800781 72.824219 19.90625 73.089844 C 20.015625 73.351562 20.148438 73.597656 20.304688 73.835938 C 20.464844 74.070312 20.640625 74.289062 20.84375 74.488281 L 23.023438 76.671875 C 23.222656 76.875 23.441406 77.050781 23.679688 77.210938 C 23.914062 77.367188 24.164062 77.5 24.425781 77.609375 C 24.6875 77.71875 24.957031 77.796875 25.234375 77.855469 C 25.511719 77.910156 25.792969 77.9375 26.078125 77.9375 C 26.359375 77.9375 26.640625 77.910156 26.917969 77.855469 C 27.195312 77.796875 27.464844 77.71875 27.726562 77.609375 C 27.988281 77.5 28.238281 77.367188 28.472656 77.210938 C 28.710938 77.050781 28.929688 76.875 29.128906 76.671875 L 29.507812 76.292969 C 29.832031 75.980469 30.191406 75.722656 30.589844 75.519531 C 30.992188 75.316406 31.414062 75.179688 31.855469 75.105469 C 32.296875 75.03125 32.742188 75.027344 33.183594 75.089844 C 33.628906 75.152344 34.054688 75.277344 34.457031 75.472656 C 34.941406 75.691406 35.4375 75.898438 35.9375 76.074219 C 36.359375 76.222656 36.75 76.433594 37.105469 76.703125 C 37.464844 76.976562 37.773438 77.292969 38.035156 77.660156 C 38.292969 78.023438 38.492188 78.421875 38.632812 78.847656 C 38.773438 79.273438 38.84375 79.710938 38.851562 80.160156 L 38.851562 80.703125 C 38.851562 80.984375 38.878906 81.265625 38.933594 81.546875 C 38.988281 81.824219 39.070312 82.09375 39.179688 82.355469 C 39.285156 82.617188 39.417969 82.867188 39.578125 83.105469 C 39.734375 83.339844 39.914062 83.558594 40.113281 83.757812 C 40.316406 83.960938 40.53125 84.136719 40.769531 84.296875 C 41.003906 84.453125 41.253906 84.585938 41.515625 84.695312 C 41.777344 84.804688 42.046875 84.886719 42.324219 84.941406 C 42.605469 84.996094 42.886719 85.023438 43.167969 85.023438 L 46.242188 85.023438 C 46.527344 85.023438 46.808594 84.996094 47.085938 84.941406 C 47.363281 84.886719 47.632812 84.804688 47.894531 84.695312 C 48.15625 84.585938 48.40625 84.453125 48.644531 84.296875 C 48.878906 84.136719 49.097656 83.960938 49.296875 83.757812 C 49.496094 83.558594 49.675781 83.339844 49.835938 83.105469 C 49.992188 82.867188 50.125 82.617188 50.234375 82.355469 C 50.34375 82.09375 50.425781 81.824219 50.480469 81.546875 C 50.535156 81.265625 50.5625 80.984375 50.5625 80.703125 L 50.5625 80.628906 L 47.5625 80.628906 C 47.277344 80.628906 46.996094 80.601562 46.71875 80.546875 C 46.441406 80.492188 46.167969 80.410156 45.90625 80.300781 C 45.644531 80.191406 45.398438 80.058594 45.160156 79.902344 C 44.925781 79.742188 44.707031 79.5625 44.507812 79.363281 C 44.304688 79.164062 44.125 78.945312 43.96875 78.707031 C 43.8125 78.472656 43.679688 78.222656 43.570312 77.960938 C 43.460938 77.699219 43.378906 77.429688 43.324219 77.148438 C 43.269531 76.871094 43.242188 76.589844 43.242188 76.308594 Z M 43.242188 76.308594 " fill-opacity="1" fill-rule="nonzero"/><path fill="#00abd1" d="M 49.097656 32.28125 C 47.777344 32.277344 46.476562 32.4375 45.191406 32.757812 C 43.910156 33.078125 42.6875 33.546875 41.519531 34.167969 C 40.355469 34.792969 39.28125 35.546875 38.300781 36.433594 C 37.320312 37.320312 36.460938 38.3125 35.726562 39.410156 C 36.496094 38.890625 37.300781 38.441406 38.148438 38.0625 C 38.996094 37.6875 39.867188 37.382812 40.765625 37.15625 C 41.664062 36.925781 42.574219 36.777344 43.5 36.707031 C 44.425781 36.636719 45.347656 36.648438 46.269531 36.738281 C 47.191406 36.824219 48.101562 36.992188 48.996094 37.238281 C 49.886719 37.484375 50.753906 37.808594 51.59375 38.203125 C 52.429688 38.597656 53.230469 39.0625 53.988281 39.597656 C 54.746094 40.132812 55.453125 40.726562 56.105469 41.382812 C 56.761719 42.039062 57.355469 42.746094 57.890625 43.503906 C 58.421875 44.261719 58.886719 45.0625 59.285156 45.898438 C 59.679688 46.738281 60 47.605469 60.246094 48.5 C 60.492188 49.394531 60.660156 50.304688 60.75 51.226562 C 60.839844 52.148438 60.847656 53.074219 60.777344 54 C 60.707031 54.921875 60.558594 55.835938 60.332031 56.734375 C 60.101562 57.632812 59.800781 58.507812 59.421875 59.355469 C 59.042969 60.199219 58.597656 61.007812 58.078125 61.777344 C 58.789062 61.300781 59.460938 60.769531 60.085938 60.183594 C 60.714844 59.597656 61.292969 58.964844 61.816406 58.289062 C 62.34375 57.609375 62.8125 56.894531 63.226562 56.144531 C 63.636719 55.390625 63.988281 54.609375 64.277344 53.800781 C 64.5625 52.992188 64.785156 52.167969 64.941406 51.324219 C 65.097656 50.476562 65.183594 49.628906 65.203125 48.769531 C 65.222656 47.910156 65.175781 47.058594 65.058594 46.207031 C 64.941406 45.355469 64.761719 44.519531 64.511719 43.699219 C 64.261719 42.878906 63.945312 42.082031 63.570312 41.3125 C 63.191406 40.539062 62.757812 39.804688 62.261719 39.101562 C 61.765625 38.402344 61.21875 37.746094 60.621094 37.128906 C 60.019531 36.515625 59.375 35.953125 58.6875 35.445312 C 58 34.933594 57.273438 34.480469 56.511719 34.085938 C 55.75 33.691406 54.960938 33.359375 54.148438 33.089844 C 53.332031 32.820312 52.5 32.621094 51.65625 32.484375 C 50.808594 32.347656 49.957031 32.28125 49.097656 32.28125 Z M 49.097656 32.28125 " fill-opacity="1" fill-rule="nonzero"/><path fill="#000000" d="M 50.636719 82.09375 L 47.5625 82.09375 C 47.183594 82.09375 46.808594 82.058594 46.4375 81.984375 C 46.0625 81.910156 45.703125 81.800781 45.351562 81.652344 C 45 81.507812 44.667969 81.332031 44.351562 81.121094 C 44.035156 80.910156 43.742188 80.667969 43.472656 80.398438 C 43.207031 80.132812 42.964844 79.839844 42.753906 79.523438 C 42.542969 79.207031 42.367188 78.875 42.21875 78.523438 C 42.074219 78.171875 41.964844 77.8125 41.890625 77.4375 C 41.816406 77.066406 41.777344 76.691406 41.777344 76.308594 L 41.777344 75.765625 C 41.769531 75.152344 41.582031 74.597656 41.222656 74.101562 C 40.863281 73.601562 40.394531 73.253906 39.8125 73.054688 C 39.28125 72.851562 38.761719 72.636719 38.25 72.40625 C 37.699219 72.136719 37.117188 72.050781 36.511719 72.144531 C 35.902344 72.242188 35.375 72.503906 34.933594 72.929688 L 34.550781 73.3125 C 34.28125 73.582031 33.988281 73.820312 33.675781 74.03125 C 33.359375 74.242188 33.023438 74.421875 32.675781 74.566406 C 32.324219 74.710938 31.960938 74.820312 31.589844 74.894531 C 31.21875 74.96875 30.84375 75.003906 30.464844 75.003906 C 30.082031 75.003906 29.707031 74.96875 29.335938 74.894531 C 28.964844 74.820312 28.601562 74.710938 28.25 74.566406 C 27.902344 74.421875 27.566406 74.242188 27.253906 74.03125 C 26.9375 73.820312 26.644531 73.582031 26.375 73.3125 L 24.199219 71.136719 C 23.929688 70.867188 23.691406 70.574219 23.480469 70.257812 C 23.269531 69.941406 23.09375 69.609375 22.949219 69.257812 C 22.804688 68.90625 22.695312 68.546875 22.621094 68.171875 C 22.546875 67.800781 22.507812 67.425781 22.507812 67.046875 C 22.507812 66.664062 22.546875 66.289062 22.621094 65.917969 C 22.695312 65.542969 22.804688 65.183594 22.949219 64.832031 C 23.09375 64.480469 23.269531 64.148438 23.480469 63.832031 C 23.691406 63.515625 23.929688 63.222656 24.199219 62.957031 L 24.582031 62.570312 C 25.011719 62.128906 25.269531 61.601562 25.367188 60.992188 C 25.464844 60.386719 25.375 59.804688 25.105469 59.25 C 24.875 58.742188 24.667969 58.226562 24.457031 57.691406 C 24.257812 57.109375 23.910156 56.640625 23.414062 56.277344 C 22.917969 55.917969 22.363281 55.730469 21.75 55.722656 L 21.207031 55.722656 C 20.824219 55.722656 20.449219 55.683594 20.078125 55.609375 C 19.707031 55.535156 19.34375 55.425781 18.996094 55.28125 C 18.644531 55.132812 18.3125 54.957031 17.996094 54.746094 C 17.679688 54.535156 17.386719 54.292969 17.121094 54.027344 C 16.851562 53.757812 16.613281 53.464844 16.402344 53.148438 C 16.191406 52.835938 16.011719 52.5 15.867188 52.148438 C 15.722656 51.800781 15.613281 51.4375 15.539062 51.066406 C 15.464844 50.691406 15.425781 50.316406 15.425781 49.9375 L 15.425781 46.859375 C 15.425781 46.480469 15.460938 46.105469 15.535156 45.730469 C 15.609375 45.359375 15.71875 44.996094 15.867188 44.644531 C 16.011719 44.296875 16.1875 43.960938 16.398438 43.644531 C 16.609375 43.328125 16.851562 43.039062 17.117188 42.769531 C 17.386719 42.5 17.679688 42.261719 17.992188 42.046875 C 18.308594 41.835938 18.640625 41.660156 18.992188 41.511719 C 19.34375 41.367188 19.707031 41.257812 20.078125 41.183594 C 20.449219 41.109375 20.824219 41.070312 21.207031 41.070312 L 21.75 41.070312 C 22.359375 41.058594 22.914062 40.875 23.410156 40.511719 C 23.90625 40.152344 24.257812 39.683594 24.457031 39.105469 C 24.660156 38.574219 24.875 38.050781 25.105469 37.542969 C 25.375 36.988281 25.464844 36.40625 25.367188 35.796875 C 25.269531 35.191406 25.011719 34.664062 24.582031 34.222656 L 24.199219 33.835938 C 23.929688 33.570312 23.691406 33.277344 23.480469 32.960938 C 23.269531 32.644531 23.09375 32.3125 22.949219 31.960938 C 22.804688 31.609375 22.695312 31.246094 22.621094 30.875 C 22.546875 30.503906 22.507812 30.128906 22.507812 29.746094 C 22.507812 29.367188 22.546875 28.992188 22.621094 28.621094 C 22.695312 28.246094 22.804688 27.886719 22.949219 27.535156 C 23.09375 27.183594 23.269531 26.851562 23.480469 26.535156 C 23.691406 26.21875 23.929688 25.925781 24.199219 25.65625 L 26.375 23.480469 C 26.644531 23.210938 26.9375 22.972656 27.253906 22.761719 C 27.566406 22.550781 27.902344 22.371094 28.25 22.226562 C 28.601562 22.082031 28.964844 21.972656 29.335938 21.898438 C 29.707031 21.824219 30.082031 21.785156 30.464844 21.785156 C 30.84375 21.785156 31.21875 21.824219 31.589844 21.898438 C 31.960938 21.972656 32.324219 22.082031 32.675781 22.226562 C 33.023438 22.371094 33.359375 22.550781 33.675781 22.761719 C 33.988281 22.972656 34.28125 23.210938 34.550781 23.480469 L 34.933594 23.863281 C 35.375 24.289062 35.902344 24.550781 36.511719 24.648438 C 37.117188 24.742188 37.699219 24.65625 38.25 24.386719 C 38.761719 24.15625 39.277344 23.945312 39.8125 23.738281 C 40.390625 23.539062 40.863281 23.1875 41.222656 22.691406 C 41.582031 22.195312 41.765625 21.640625 41.777344 21.027344 L 41.777344 20.484375 C 41.777344 20.101562 41.816406 19.726562 41.890625 19.355469 C 41.964844 18.984375 42.074219 18.621094 42.21875 18.269531 C 42.363281 17.917969 42.542969 17.585938 42.753906 17.269531 C 42.964844 16.953125 43.203125 16.664062 43.472656 16.394531 C 43.742188 16.125 44.03125 15.886719 44.347656 15.675781 C 44.664062 15.464844 44.996094 15.285156 45.347656 15.140625 C 45.699219 14.996094 46.058594 14.886719 46.429688 14.8125 C 46.800781 14.738281 47.179688 14.699219 47.558594 14.699219 L 50.632812 14.699219 C 51.011719 14.699219 51.386719 14.734375 51.761719 14.808594 C 52.132812 14.882812 52.496094 14.992188 52.84375 15.140625 C 53.195312 15.285156 53.527344 15.460938 53.84375 15.671875 C 54.160156 15.882812 54.453125 16.125 54.722656 16.390625 C 54.988281 16.660156 55.230469 16.953125 55.441406 17.269531 C 55.652344 17.585938 55.832031 17.917969 55.976562 18.269531 C 56.121094 18.621094 56.230469 18.980469 56.304688 19.355469 C 56.378906 19.726562 56.417969 20.101562 56.417969 20.484375 L 56.417969 21.027344 C 56.429688 21.640625 56.613281 22.195312 56.972656 22.691406 C 57.332031 23.1875 57.804688 23.539062 58.382812 23.738281 C 58.914062 23.9375 59.433594 24.15625 59.945312 24.386719 C 60.496094 24.65625 61.078125 24.742188 61.6875 24.648438 C 62.292969 24.550781 62.820312 24.289062 63.261719 23.863281 L 63.644531 23.480469 C 63.914062 23.210938 64.207031 22.972656 64.523438 22.761719 C 64.839844 22.550781 65.171875 22.371094 65.523438 22.226562 C 65.871094 22.082031 66.234375 21.972656 66.605469 21.898438 C 66.976562 21.824219 67.351562 21.789062 67.734375 21.789062 C 68.113281 21.789062 68.488281 21.824219 68.859375 21.898438 C 69.230469 21.972656 69.59375 22.082031 69.945312 22.226562 C 70.292969 22.371094 70.628906 22.550781 70.941406 22.761719 C 71.257812 22.972656 71.550781 23.210938 71.820312 23.480469 L 73.996094 25.65625 C 74.265625 25.925781 74.503906 26.21875 74.714844 26.535156 C 74.925781 26.851562 75.101562 27.183594 75.246094 27.535156 C 75.390625 27.886719 75.5 28.246094 75.574219 28.621094 C 75.648438 28.992188 75.6875 29.367188 75.6875 29.746094 C 75.6875 30.128906 75.648438 30.503906 75.574219 30.875 C 75.5 31.246094 75.390625 31.609375 75.246094 31.960938 C 75.101562 32.3125 74.925781 32.644531 74.714844 32.960938 C 74.503906 33.277344 74.265625 33.570312 73.996094 33.835938 L 73.613281 34.222656 C 73.1875 34.664062 72.925781 35.191406 72.828125 35.796875 C 72.734375 36.40625 72.820312 36.988281 73.089844 37.542969 C 73.320312 38.050781 73.53125 38.566406 73.738281 39.101562 C 73.9375 39.683594 74.289062 40.152344 74.785156 40.511719 C 75.28125 40.871094 75.835938 41.058594 76.449219 41.070312 L 76.992188 41.070312 C 77.371094 41.070312 77.746094 41.109375 78.117188 41.183594 C 78.488281 41.257812 78.851562 41.367188 79.203125 41.511719 C 79.550781 41.65625 79.886719 41.835938 80.199219 42.046875 C 80.515625 42.257812 80.808594 42.5 81.074219 42.765625 C 81.34375 43.035156 81.582031 43.328125 81.792969 43.644531 C 82.003906 43.957031 82.183594 44.292969 82.328125 44.640625 C 82.472656 44.992188 82.585938 45.355469 82.660156 45.726562 C 82.734375 46.097656 82.769531 46.476562 82.769531 46.855469 L 82.769531 49.933594 C 82.769531 50.3125 82.734375 50.6875 82.660156 51.0625 C 82.585938 51.433594 82.476562 51.796875 82.332031 52.144531 C 82.1875 52.496094 82.007812 52.832031 81.796875 53.148438 C 81.585938 53.460938 81.347656 53.753906 81.078125 54.023438 C 80.808594 54.292969 80.519531 54.53125 80.203125 54.742188 C 79.886719 54.957031 79.554688 55.132812 79.203125 55.28125 C 78.851562 55.425781 78.492188 55.535156 78.117188 55.609375 C 77.746094 55.683594 77.371094 55.722656 76.992188 55.722656 L 76.449219 55.722656 C 75.835938 55.730469 75.28125 55.917969 74.78125 56.277344 C 74.285156 56.636719 73.9375 57.109375 73.738281 57.6875 C 73.535156 58.21875 73.320312 58.742188 73.089844 59.25 C 72.820312 59.804688 72.734375 60.386719 72.828125 60.992188 C 72.925781 61.601562 73.1875 62.128906 73.613281 62.570312 L 73.996094 62.957031 C 74.265625 63.222656 74.503906 63.515625 74.714844 63.832031 C 74.925781 64.148438 75.101562 64.480469 75.246094 64.832031 C 75.390625 65.183594 75.5 65.542969 75.574219 65.917969 C 75.648438 66.289062 75.6875 66.664062 75.6875 67.046875 C 75.6875 67.425781 75.648438 67.800781 75.574219 68.171875 C 75.5 68.546875 75.390625 68.90625 75.246094 69.257812 C 75.101562 69.609375 74.925781 69.941406 74.714844 70.257812 C 74.503906 70.574219 74.265625 70.867188 73.996094 71.136719 L 71.820312 73.3125 C 71.550781 73.582031 71.257812 73.820312 70.941406 74.03125 C 70.628906 74.242188 70.292969 74.421875 69.945312 74.566406 C 69.59375 74.710938 69.230469 74.820312 68.859375 74.894531 C 68.488281 74.96875 68.113281 75.003906 67.734375 75.003906 C 67.351562 75.003906 66.976562 74.96875 66.605469 74.894531 C 66.234375 74.820312 65.871094 74.710938 65.523438 74.566406 C 65.171875 74.421875 64.839844 74.242188 64.523438 74.03125 C 64.207031 73.820312 63.914062 73.582031 63.644531 73.3125 L 63.261719 72.929688 C 62.820312 72.503906 62.292969 72.242188 61.6875 72.144531 C 61.078125 72.050781 60.496094 72.136719 59.945312 72.40625 C 59.433594 72.636719 58.921875 72.847656 58.382812 73.054688 C 57.804688 73.253906 57.335938 73.601562 56.972656 74.101562 C 56.613281 74.597656 56.429688 75.152344 56.417969 75.765625 L 56.417969 76.308594 C 56.417969 76.6875 56.378906 77.066406 56.304688 77.4375 C 56.230469 77.808594 56.121094 78.171875 55.976562 78.523438 C 55.832031 78.871094 55.652344 79.207031 55.441406 79.523438 C 55.230469 79.835938 54.992188 80.128906 54.722656 80.398438 C 54.457031 80.667969 54.164062 80.90625 53.847656 81.117188 C 53.53125 81.328125 53.199219 81.507812 52.847656 81.652344 C 52.5 81.796875 52.136719 81.90625 51.765625 81.980469 C 51.394531 82.054688 51.015625 82.09375 50.636719 82.09375 Z M 36.925781 69.183594 C 37.8125 69.183594 38.652344 69.371094 39.457031 69.734375 C 39.914062 69.941406 40.378906 70.136719 40.847656 70.3125 C 41.410156 70.515625 41.929688 70.796875 42.402344 71.15625 C 42.878906 71.519531 43.289062 71.941406 43.636719 72.429688 C 43.980469 72.917969 44.246094 73.445312 44.425781 74.015625 C 44.609375 74.585938 44.703125 75.167969 44.707031 75.765625 L 44.707031 76.308594 C 44.707031 76.6875 44.777344 77.050781 44.921875 77.402344 C 45.070312 77.75 45.273438 78.058594 45.542969 78.328125 C 45.808594 78.59375 46.117188 78.800781 46.46875 78.945312 C 46.816406 79.089844 47.179688 79.164062 47.558594 79.164062 L 50.632812 79.164062 C 51.011719 79.164062 51.375 79.09375 51.726562 78.949219 C 52.074219 78.800781 52.382812 78.597656 52.652344 78.328125 C 52.917969 78.0625 53.125 77.753906 53.273438 77.402344 C 53.417969 77.054688 53.488281 76.6875 53.488281 76.308594 L 53.488281 75.765625 C 53.492188 75.167969 53.585938 74.585938 53.769531 74.015625 C 53.953125 73.445312 54.214844 72.917969 54.5625 72.429688 C 54.90625 71.941406 55.316406 71.519531 55.792969 71.15625 C 56.269531 70.796875 56.789062 70.515625 57.351562 70.3125 C 57.816406 70.136719 58.28125 69.941406 58.738281 69.734375 C 59.277344 69.480469 59.84375 69.3125 60.4375 69.230469 C 61.03125 69.148438 61.621094 69.160156 62.210938 69.257812 C 62.796875 69.359375 63.359375 69.546875 63.890625 69.820312 C 64.421875 70.089844 64.902344 70.4375 65.328125 70.859375 L 65.710938 71.242188 C 65.976562 71.507812 66.285156 71.714844 66.636719 71.859375 C 66.984375 72.003906 67.347656 72.078125 67.726562 72.078125 C 68.105469 72.078125 68.46875 72.003906 68.816406 71.859375 C 69.167969 71.714844 69.476562 71.507812 69.742188 71.242188 L 71.921875 69.0625 C 72.1875 68.792969 72.394531 68.484375 72.539062 68.136719 C 72.683594 67.785156 72.753906 67.421875 72.753906 67.042969 C 72.753906 66.664062 72.683594 66.300781 72.539062 65.953125 C 72.394531 65.601562 72.1875 65.292969 71.921875 65.027344 L 71.539062 64.644531 C 71.117188 64.21875 70.773438 63.738281 70.5 63.207031 C 70.226562 62.671875 70.039062 62.113281 69.941406 61.523438 C 69.839844 60.933594 69.832031 60.34375 69.910156 59.75 C 69.992188 59.15625 70.160156 58.589844 70.414062 58.050781 C 70.621094 57.59375 70.816406 57.128906 70.992188 56.660156 C 71.195312 56.097656 71.476562 55.574219 71.835938 55.097656 C 72.195312 54.621094 72.621094 54.210938 73.109375 53.863281 C 73.597656 53.519531 74.125 53.253906 74.695312 53.070312 C 75.265625 52.886719 75.847656 52.792969 76.449219 52.792969 L 76.992188 52.792969 C 77.367188 52.792969 77.730469 52.71875 78.082031 52.574219 C 78.429688 52.429688 78.738281 52.222656 79.007812 51.953125 C 79.273438 51.6875 79.480469 51.378906 79.625 51.03125 C 79.769531 50.679688 79.84375 50.316406 79.84375 49.9375 L 79.84375 46.859375 C 79.84375 46.480469 79.769531 46.117188 79.625 45.765625 C 79.480469 45.417969 79.277344 45.109375 79.007812 44.839844 C 78.742188 44.570312 78.433594 44.363281 78.082031 44.21875 C 77.734375 44.074219 77.371094 44 76.992188 44 L 76.449219 44 C 75.851562 43.996094 75.265625 43.902344 74.699219 43.722656 C 74.128906 43.539062 73.601562 43.273438 73.113281 42.929688 C 72.628906 42.582031 72.203125 42.171875 71.84375 41.695312 C 71.480469 41.21875 71.199219 40.699219 71 40.136719 C 70.820312 39.671875 70.628906 39.207031 70.421875 38.75 C 70.167969 38.207031 70 37.640625 69.917969 37.046875 C 69.835938 36.457031 69.84375 35.863281 69.945312 35.277344 C 70.046875 34.6875 70.234375 34.125 70.503906 33.59375 C 70.777344 33.058594 71.125 32.582031 71.542969 32.15625 L 71.925781 31.773438 C 72.195312 31.503906 72.398438 31.195312 72.542969 30.847656 C 72.6875 30.496094 72.761719 30.132812 72.761719 29.753906 C 72.761719 29.375 72.6875 29.011719 72.542969 28.664062 C 72.398438 28.3125 72.195312 28.003906 71.925781 27.738281 L 69.75 25.554688 C 69.480469 25.289062 69.171875 25.082031 68.824219 24.9375 C 68.472656 24.792969 68.109375 24.722656 67.730469 24.722656 C 67.355469 24.722656 66.992188 24.792969 66.640625 24.9375 C 66.292969 25.082031 65.984375 25.289062 65.714844 25.554688 L 65.332031 25.941406 C 64.90625 26.359375 64.429688 26.707031 63.894531 26.976562 C 63.363281 27.25 62.804688 27.4375 62.214844 27.539062 C 61.625 27.636719 61.035156 27.648438 60.441406 27.566406 C 59.851562 27.484375 59.285156 27.316406 58.746094 27.0625 C 58.289062 26.855469 57.824219 26.664062 57.355469 26.484375 C 56.792969 26.285156 56.273438 26.003906 55.796875 25.640625 C 55.320312 25.28125 54.90625 24.855469 54.5625 24.367188 C 54.214844 23.878906 53.953125 23.347656 53.769531 22.777344 C 53.585938 22.210938 53.492188 21.625 53.488281 21.027344 L 53.488281 20.484375 C 53.488281 20.105469 53.417969 19.742188 53.273438 19.390625 C 53.128906 19.042969 52.921875 18.734375 52.652344 18.464844 C 52.386719 18.199219 52.078125 17.992188 51.730469 17.847656 C 51.378906 17.703125 51.015625 17.628906 50.636719 17.628906 L 47.5625 17.628906 C 47.183594 17.628906 46.820312 17.699219 46.472656 17.84375 C 46.121094 17.988281 45.8125 18.195312 45.542969 18.464844 C 45.277344 18.730469 45.070312 19.039062 44.925781 19.390625 C 44.777344 19.738281 44.707031 20.105469 44.707031 20.484375 L 44.707031 21.027344 C 44.703125 21.625 44.609375 22.207031 44.425781 22.777344 C 44.242188 23.347656 43.980469 23.875 43.632812 24.363281 C 43.289062 24.851562 42.878906 25.273438 42.402344 25.636719 C 41.925781 25.996094 41.40625 26.277344 40.84375 26.480469 C 40.378906 26.65625 39.914062 26.851562 39.457031 27.058594 C 38.917969 27.3125 38.351562 27.480469 37.757812 27.5625 C 37.167969 27.644531 36.574219 27.632812 35.988281 27.535156 C 35.398438 27.433594 34.835938 27.246094 34.304688 26.972656 C 33.773438 26.699219 33.292969 26.355469 32.871094 25.933594 L 32.484375 25.550781 C 32.21875 25.285156 31.910156 25.078125 31.5625 24.933594 C 31.210938 24.789062 30.847656 24.714844 30.46875 24.714844 C 30.089844 24.714844 29.726562 24.789062 29.378906 24.933594 C 29.03125 25.078125 28.722656 25.285156 28.453125 25.550781 L 26.269531 27.738281 C 26.003906 28.003906 25.796875 28.3125 25.652344 28.664062 C 25.507812 29.011719 25.433594 29.378906 25.433594 29.753906 C 25.433594 30.132812 25.507812 30.496094 25.652344 30.847656 C 25.796875 31.195312 26.003906 31.503906 26.269531 31.773438 L 26.652344 32.15625 C 27.074219 32.582031 27.417969 33.0625 27.691406 33.59375 C 27.964844 34.125 28.148438 34.6875 28.25 35.277344 C 28.351562 35.867188 28.359375 36.457031 28.277344 37.050781 C 28.199219 37.640625 28.03125 38.210938 27.773438 38.75 C 27.570312 39.207031 27.375 39.671875 27.199219 40.140625 C 26.996094 40.703125 26.714844 41.222656 26.351562 41.699219 C 25.992188 42.171875 25.566406 42.585938 25.082031 42.929688 C 24.59375 43.273438 24.066406 43.539062 23.496094 43.722656 C 22.929688 43.90625 22.34375 43.996094 21.75 44 L 21.207031 44 C 20.828125 44 20.464844 44.074219 20.113281 44.21875 C 19.765625 44.363281 19.457031 44.570312 19.191406 44.835938 C 18.921875 45.105469 18.714844 45.414062 18.570312 45.761719 C 18.425781 46.113281 18.355469 46.476562 18.351562 46.855469 L 18.351562 49.933594 C 18.351562 50.3125 18.425781 50.675781 18.570312 51.023438 C 18.714844 51.375 18.921875 51.683594 19.1875 51.953125 C 19.453125 52.222656 19.761719 52.425781 20.113281 52.574219 C 20.460938 52.71875 20.828125 52.792969 21.207031 52.792969 L 21.75 52.792969 C 22.347656 52.792969 22.929688 52.886719 23.496094 53.070312 C 24.066406 53.253906 24.59375 53.519531 25.082031 53.863281 C 25.570312 54.210938 25.992188 54.621094 26.355469 55.097656 C 26.714844 55.574219 26.996094 56.09375 27.199219 56.65625 C 27.375 57.121094 27.566406 57.585938 27.773438 58.042969 C 28.03125 58.585938 28.199219 59.152344 28.277344 59.742188 C 28.359375 60.335938 28.351562 60.925781 28.25 61.515625 C 28.148438 62.105469 27.964844 62.667969 27.691406 63.199219 C 27.417969 63.730469 27.074219 64.210938 26.652344 64.636719 L 26.269531 65.019531 C 26.003906 65.289062 25.796875 65.597656 25.652344 65.945312 C 25.507812 66.296875 25.433594 66.660156 25.433594 67.039062 C 25.433594 67.417969 25.507812 67.78125 25.652344 68.128906 C 25.796875 68.480469 26.003906 68.789062 26.269531 69.054688 L 28.457031 71.242188 C 28.722656 71.507812 29.03125 71.714844 29.378906 71.859375 C 29.730469 72.003906 30.09375 72.078125 30.472656 72.078125 C 30.847656 72.078125 31.214844 72.003906 31.5625 71.859375 C 31.910156 71.714844 32.21875 71.507812 32.488281 71.242188 L 32.871094 70.859375 C 33.410156 70.320312 34.027344 69.90625 34.730469 69.613281 C 35.433594 69.324219 36.167969 69.179688 36.925781 69.183594 Z M 36.925781 69.183594 " fill-opacity="1" fill-rule="nonzero"/><path fill="#000000" d="M 49.097656 65.976562 C 48.523438 65.976562 47.949219 65.949219 47.375 65.894531 C 46.804688 65.835938 46.234375 65.753906 45.671875 65.640625 C 45.105469 65.527344 44.546875 65.386719 44 65.21875 C 43.449219 65.054688 42.90625 64.859375 42.375 64.640625 C 41.84375 64.417969 41.324219 64.171875 40.816406 63.902344 C 40.308594 63.628906 39.816406 63.335938 39.335938 63.015625 C 38.859375 62.695312 38.398438 62.351562 37.953125 61.988281 C 37.507812 61.621094 37.082031 61.234375 36.675781 60.828125 C 36.269531 60.421875 35.882812 59.996094 35.515625 59.550781 C 35.152344 59.105469 34.808594 58.644531 34.492188 58.164062 C 34.171875 57.683594 33.875 57.191406 33.605469 56.683594 C 33.332031 56.175781 33.085938 55.65625 32.867188 55.125 C 32.648438 54.59375 32.453125 54.050781 32.285156 53.5 C 32.121094 52.949219 31.980469 52.390625 31.867188 51.828125 C 31.753906 51.261719 31.671875 50.691406 31.613281 50.121094 C 31.558594 49.546875 31.53125 48.972656 31.53125 48.394531 C 31.53125 47.820312 31.558594 47.246094 31.613281 46.671875 C 31.671875 46.101562 31.753906 45.53125 31.867188 44.964844 C 31.980469 44.402344 32.121094 43.84375 32.285156 43.292969 C 32.453125 42.742188 32.648438 42.199219 32.867188 41.667969 C 33.085938 41.136719 33.332031 40.617188 33.605469 40.109375 C 33.875 39.601562 34.171875 39.105469 34.492188 38.628906 C 34.808594 38.148438 35.152344 37.6875 35.515625 37.242188 C 35.882812 36.796875 36.269531 36.371094 36.675781 35.964844 C 37.082031 35.558594 37.507812 35.171875 37.953125 34.804688 C 38.398438 34.441406 38.859375 34.097656 39.335938 33.777344 C 39.816406 33.457031 40.308594 33.164062 40.816406 32.890625 C 41.324219 32.621094 41.84375 32.375 42.375 32.152344 C 42.90625 31.933594 43.449219 31.738281 44 31.570312 C 44.546875 31.40625 45.105469 31.265625 45.671875 31.152344 C 46.234375 31.039062 46.804688 30.957031 47.375 30.898438 C 47.949219 30.84375 48.523438 30.816406 49.097656 30.816406 C 49.671875 30.816406 50.246094 30.84375 50.820312 30.898438 C 51.394531 30.957031 51.960938 31.039062 52.527344 31.152344 C 53.089844 31.265625 53.648438 31.40625 54.199219 31.570312 C 54.75 31.738281 55.289062 31.933594 55.820312 32.152344 C 56.351562 32.375 56.871094 32.621094 57.378906 32.890625 C 57.886719 33.164062 58.378906 33.457031 58.859375 33.777344 C 59.335938 34.097656 59.796875 34.441406 60.242188 34.804688 C 60.6875 35.171875 61.113281 35.558594 61.519531 35.964844 C 61.925781 36.371094 62.3125 36.796875 62.679688 37.242188 C 63.042969 37.6875 63.386719 38.148438 63.707031 38.628906 C 64.023438 39.105469 64.320312 39.601562 64.59375 40.109375 C 64.863281 40.617188 65.109375 41.136719 65.328125 41.667969 C 65.550781 42.199219 65.742188 42.742188 65.910156 43.292969 C 66.078125 43.84375 66.214844 44.402344 66.328125 44.964844 C 66.441406 45.53125 66.523438 46.101562 66.582031 46.671875 C 66.636719 47.246094 66.667969 47.820312 66.667969 48.394531 C 66.664062 48.972656 66.636719 49.546875 66.578125 50.117188 C 66.523438 50.691406 66.4375 51.261719 66.324219 51.824219 C 66.214844 52.390625 66.074219 52.945312 65.90625 53.496094 C 65.738281 54.046875 65.542969 54.589844 65.324219 55.121094 C 65.105469 55.652344 64.859375 56.171875 64.585938 56.679688 C 64.316406 57.1875 64.019531 57.679688 63.699219 58.160156 C 63.378906 58.636719 63.039062 59.101562 62.671875 59.542969 C 62.308594 59.988281 61.921875 60.414062 61.515625 60.824219 C 61.109375 61.230469 60.683594 61.617188 60.238281 61.980469 C 59.792969 62.347656 59.332031 62.6875 58.855469 63.007812 C 58.375 63.328125 57.882812 63.625 57.375 63.894531 C 56.867188 64.167969 56.347656 64.414062 55.816406 64.632812 C 55.285156 64.855469 54.746094 65.050781 54.195312 65.214844 C 53.644531 65.382812 53.089844 65.523438 52.523438 65.636719 C 51.960938 65.75 51.390625 65.835938 50.820312 65.890625 C 50.246094 65.949219 49.671875 65.976562 49.097656 65.976562 Z M 49.097656 33.746094 C 48.136719 33.746094 47.183594 33.839844 46.242188 34.027344 C 45.300781 34.214844 44.382812 34.492188 43.496094 34.859375 C 42.605469 35.226562 41.761719 35.679688 40.964844 36.214844 C 40.164062 36.75 39.425781 37.355469 38.746094 38.035156 C 38.066406 38.714844 37.460938 39.457031 36.925781 40.257812 C 36.390625 41.054688 35.941406 41.902344 35.570312 42.789062 C 35.203125 43.679688 34.925781 44.59375 34.738281 45.539062 C 34.550781 46.480469 34.457031 47.433594 34.457031 48.394531 C 34.457031 49.359375 34.550781 50.3125 34.738281 51.253906 C 34.925781 52.199219 35.203125 53.113281 35.570312 54.003906 C 35.941406 54.890625 36.390625 55.734375 36.925781 56.535156 C 37.460938 57.335938 38.066406 58.074219 38.746094 58.757812 C 39.425781 59.4375 40.164062 60.042969 40.964844 60.578125 C 41.761719 61.113281 42.605469 61.5625 43.496094 61.933594 C 44.382812 62.300781 45.300781 62.578125 46.242188 62.765625 C 47.183594 62.953125 48.136719 63.046875 49.097656 63.046875 C 50.058594 63.046875 51.011719 62.953125 51.953125 62.765625 C 52.898438 62.578125 53.8125 62.300781 54.699219 61.933594 C 55.589844 61.5625 56.433594 61.113281 57.230469 60.578125 C 58.03125 60.042969 58.769531 59.4375 59.449219 58.757812 C 60.128906 58.074219 60.738281 57.335938 61.269531 56.535156 C 61.804688 55.734375 62.257812 54.890625 62.625 54.003906 C 62.992188 53.113281 63.269531 52.199219 63.457031 51.253906 C 63.644531 50.3125 63.738281 49.359375 63.738281 48.394531 C 63.738281 47.433594 63.640625 46.480469 63.453125 45.539062 C 63.265625 44.597656 62.988281 43.679688 62.621094 42.792969 C 62.25 41.902344 61.800781 41.058594 61.265625 40.261719 C 60.730469 39.460938 60.125 38.722656 59.445312 38.042969 C 58.765625 37.359375 58.027344 36.753906 57.226562 36.21875 C 56.429688 35.683594 55.585938 35.234375 54.699219 34.863281 C 53.808594 34.496094 52.894531 34.21875 51.953125 34.027344 C 51.011719 33.839844 50.058594 33.746094 49.097656 33.746094 Z M 49.097656 33.746094 " fill-opacity="1" fill-rule="nonzero"/><path fill="#000000" d="M 92.65625 42.722656 C 92.53125 41.769531 92.378906 40.824219 92.195312 39.886719 L 95.070312 39.324219 C 95.265625 40.320312 95.429688 41.339844 95.558594 42.347656 Z M 92.65625 42.722656 " fill-opacity="1" fill-rule="nonzero"/><path fill="#000000" d="M 91.542969 37.050781 C 91.242188 35.921875 90.894531 34.808594 90.503906 33.707031 C 90.113281 32.605469 89.679688 31.519531 89.199219 30.453125 C 88.722656 29.386719 88.203125 28.339844 87.644531 27.316406 C 87.082031 26.289062 86.480469 25.289062 85.839844 24.308594 C 85.199219 23.332031 84.523438 22.382812 83.804688 21.460938 C 83.089844 20.535156 82.335938 19.640625 81.550781 18.777344 C 80.761719 17.914062 79.941406 17.085938 79.085938 16.289062 C 78.234375 15.488281 77.347656 14.726562 76.433594 14 C 75.519531 13.273438 74.578125 12.582031 73.609375 11.929688 C 72.640625 11.277344 71.644531 10.667969 70.625 10.09375 C 69.609375 9.519531 68.570312 8.988281 67.507812 8.5 C 66.449219 8.011719 65.367188 7.5625 64.273438 7.160156 C 63.175781 6.757812 62.066406 6.398438 60.941406 6.082031 C 59.816406 5.765625 58.679688 5.496094 57.535156 5.273438 C 56.386719 5.046875 55.234375 4.871094 54.074219 4.738281 C 52.914062 4.605469 51.75 4.519531 50.582031 4.480469 C 49.414062 4.441406 48.246094 4.449219 47.078125 4.5 C 45.914062 4.554688 44.75 4.65625 43.589844 4.800781 C 42.433594 4.949219 41.28125 5.140625 40.136719 5.378906 C 38.992188 5.617188 37.863281 5.902344 36.742188 6.230469 C 35.621094 6.558594 34.515625 6.933594 33.421875 7.347656 C 32.332031 7.765625 31.257812 8.226562 30.203125 8.730469 C 29.148438 9.230469 28.117188 9.777344 27.105469 10.359375 C 26.09375 10.945312 25.109375 11.570312 24.144531 12.234375 C 23.183594 12.898438 22.25 13.601562 21.34375 14.339844 C 20.441406 15.078125 19.566406 15.851562 18.722656 16.65625 C 17.878906 17.464844 17.066406 18.308594 16.289062 19.179688 C 15.511719 20.054688 14.773438 20.957031 14.066406 21.886719 C 13.363281 22.820312 12.695312 23.777344 12.066406 24.761719 C 11.4375 25.75 10.847656 26.757812 10.300781 27.789062 C 9.753906 28.820312 9.246094 29.875 8.78125 30.945312 C 8.316406 32.019531 7.898438 33.109375 7.519531 34.214844 L 4.738281 33.273438 C 5.140625 32.089844 5.589844 30.929688 6.082031 29.785156 C 6.578125 28.640625 7.117188 27.515625 7.703125 26.414062 C 8.289062 25.3125 8.914062 24.238281 9.585938 23.183594 C 10.253906 22.132812 10.96875 21.109375 11.71875 20.117188 C 12.472656 19.121094 13.261719 18.160156 14.089844 17.226562 C 14.917969 16.296875 15.78125 15.398438 16.683594 14.535156 C 17.582031 13.671875 18.515625 12.847656 19.480469 12.058594 C 20.449219 11.269531 21.445312 10.523438 22.46875 9.816406 C 23.496094 9.105469 24.546875 8.4375 25.625 7.816406 C 26.707031 7.191406 27.808594 6.609375 28.933594 6.074219 C 30.058594 5.535156 31.203125 5.046875 32.367188 4.601562 C 33.53125 4.15625 34.710938 3.757812 35.90625 3.40625 C 37.101562 3.054688 38.308594 2.753906 39.53125 2.496094 C 40.75 2.242188 41.980469 2.039062 43.214844 1.882812 C 44.453125 1.726562 45.691406 1.617188 46.9375 1.5625 C 48.183594 1.503906 49.425781 1.496094 50.671875 1.539062 C 51.917969 1.578125 53.160156 1.671875 54.398438 1.8125 C 55.636719 1.953125 56.867188 2.144531 58.089844 2.382812 C 59.3125 2.621094 60.527344 2.910156 61.726562 3.246094 C 62.925781 3.582031 64.113281 3.964844 65.28125 4.398438 C 66.449219 4.828125 67.601562 5.304688 68.734375 5.828125 C 69.863281 6.351562 70.972656 6.917969 72.058594 7.527344 C 73.144531 8.140625 74.207031 8.792969 75.242188 9.488281 C 76.273438 10.183594 77.28125 10.921875 78.253906 11.695312 C 79.230469 12.472656 80.175781 13.285156 81.085938 14.136719 C 81.996094 14.988281 82.871094 15.875 83.710938 16.796875 C 84.550781 17.71875 85.355469 18.671875 86.117188 19.65625 C 86.882812 20.640625 87.605469 21.65625 88.289062 22.699219 C 88.972656 23.742188 89.613281 24.8125 90.210938 25.90625 C 90.808594 27 91.363281 28.117188 91.871094 29.253906 C 92.378906 30.394531 92.84375 31.550781 93.261719 32.726562 C 93.675781 33.902344 94.046875 35.089844 94.367188 36.296875 Z M 91.542969 37.050781 " fill-opacity="1" fill-rule="nonzero"/><g clip-path="url(#cd8842385e)"><path fill="#000000" d="M 49.097656 95.28125 C 48.203125 95.277344 47.3125 95.253906 46.417969 95.199219 C 45.527344 95.148438 44.636719 95.070312 43.746094 94.96875 C 42.859375 94.867188 41.976562 94.738281 41.09375 94.585938 C 40.214844 94.429688 39.339844 94.253906 38.46875 94.046875 C 37.597656 93.84375 36.734375 93.617188 35.875 93.363281 C 35.019531 93.109375 34.167969 92.832031 33.328125 92.53125 C 32.484375 92.230469 31.652344 91.902344 30.828125 91.554688 C 30.007812 91.207031 29.195312 90.832031 28.394531 90.4375 C 27.589844 90.039062 26.800781 89.621094 26.023438 89.179688 C 25.246094 88.742188 24.480469 88.277344 23.730469 87.792969 C 22.980469 87.308594 22.242188 86.800781 21.519531 86.273438 C 20.796875 85.75 20.089844 85.199219 19.398438 84.632812 C 18.707031 84.066406 18.035156 83.480469 17.375 82.875 C 16.71875 82.265625 16.078125 81.644531 15.457031 81 C 14.835938 80.359375 14.230469 79.699219 13.648438 79.019531 C 13.0625 78.34375 12.5 77.648438 11.953125 76.941406 C 11.410156 76.230469 10.886719 75.507812 10.382812 74.765625 C 9.878906 74.027344 9.398438 73.273438 8.9375 72.507812 C 8.476562 71.738281 8.039062 70.960938 7.625 70.167969 C 7.207031 69.375 6.816406 68.574219 6.445312 67.757812 C 6.078125 66.945312 5.730469 66.121094 5.40625 65.285156 C 5.085938 64.449219 4.785156 63.609375 4.511719 62.757812 C 4.238281 61.90625 3.988281 61.046875 3.761719 60.179688 C 3.539062 59.316406 3.335938 58.441406 3.160156 57.566406 C 2.984375 56.6875 2.835938 55.808594 2.710938 54.921875 C 2.585938 54.035156 2.484375 53.148438 2.410156 52.253906 C 2.335938 51.363281 2.289062 50.472656 2.265625 49.578125 C 2.242188 48.683594 2.242188 47.789062 2.273438 46.894531 C 2.300781 46 2.351562 45.105469 2.429688 44.214844 C 2.511719 43.324219 2.613281 42.4375 2.746094 41.550781 C 2.875 40.664062 3.027344 39.785156 3.207031 38.910156 C 3.386719 38.03125 3.59375 37.160156 3.824219 36.296875 L 6.652344 37.054688 C 6.4375 37.863281 6.246094 38.679688 6.078125 39.5 C 5.910156 40.324219 5.761719 41.148438 5.640625 41.980469 C 5.519531 42.808594 5.421875 43.640625 5.347656 44.476562 C 5.273438 45.3125 5.222656 46.148438 5.199219 46.988281 C 5.171875 47.824219 5.171875 48.664062 5.191406 49.503906 C 5.214844 50.339844 5.257812 51.179688 5.328125 52.015625 C 5.398438 52.851562 5.492188 53.683594 5.609375 54.511719 C 5.726562 55.34375 5.867188 56.171875 6.03125 56.992188 C 6.195312 57.816406 6.386719 58.632812 6.597656 59.445312 C 6.808594 60.253906 7.042969 61.058594 7.296875 61.859375 C 7.554688 62.65625 7.835938 63.445312 8.136719 64.230469 C 8.441406 65.011719 8.765625 65.785156 9.113281 66.546875 C 9.457031 67.3125 9.828125 68.066406 10.214844 68.808594 C 10.605469 69.550781 11.015625 70.28125 11.449219 71 C 11.878906 71.71875 12.332031 72.425781 12.800781 73.117188 C 13.273438 73.8125 13.765625 74.492188 14.277344 75.15625 C 14.785156 75.820312 15.316406 76.472656 15.863281 77.105469 C 16.410156 77.742188 16.976562 78.359375 17.558594 78.960938 C 18.140625 79.566406 18.742188 80.148438 19.359375 80.71875 C 19.976562 81.285156 20.605469 81.835938 21.253906 82.367188 C 21.902344 82.902344 22.566406 83.414062 23.242188 83.90625 C 23.921875 84.402344 24.609375 84.875 25.316406 85.332031 C 26.019531 85.785156 26.738281 86.21875 27.464844 86.632812 C 28.195312 87.046875 28.933594 87.4375 29.6875 87.808594 C 30.4375 88.179688 31.199219 88.53125 31.972656 88.855469 C 32.742188 89.183594 33.523438 89.488281 34.3125 89.773438 C 35.101562 90.054688 35.898438 90.316406 36.703125 90.554688 C 37.503906 90.789062 38.316406 91.003906 39.132812 91.195312 C 39.949219 91.386719 40.769531 91.554688 41.59375 91.699219 C 42.421875 91.839844 43.25 91.960938 44.082031 92.058594 C 44.914062 92.15625 45.75 92.226562 46.585938 92.277344 C 47.421875 92.324219 48.261719 92.347656 49.097656 92.351562 C 50.511719 92.351562 51.941406 92.28125 53.34375 92.144531 L 53.625 95.0625 C 52.128906 95.207031 50.605469 95.28125 49.097656 95.28125 Z M 49.097656 95.28125 " fill-opacity="1" fill-rule="nonzero"/></g><path fill="#000000" d="M 56.652344 94.671875 L 56.183594 91.78125 C 57.460938 91.578125 58.722656 91.316406 59.976562 91 C 61.226562 90.6875 62.460938 90.316406 63.683594 89.890625 C 64.902344 89.464844 66.101562 88.988281 67.277344 88.457031 C 68.453125 87.925781 69.605469 87.34375 70.730469 86.710938 C 71.855469 86.074219 72.953125 85.394531 74.015625 84.664062 C 75.082031 83.933594 76.113281 83.15625 77.109375 82.335938 C 78.105469 81.511719 79.0625 80.648438 79.984375 79.742188 C 80.902344 78.835938 81.78125 77.886719 82.617188 76.902344 C 83.453125 75.917969 84.242188 74.898438 84.988281 73.84375 C 85.734375 72.789062 86.433594 71.703125 87.082031 70.585938 C 87.734375 69.46875 88.332031 68.328125 88.878906 67.15625 C 89.429688 65.988281 89.925781 64.796875 90.367188 63.582031 C 90.808594 62.367188 91.199219 61.136719 91.53125 59.886719 C 91.867188 58.640625 92.144531 57.378906 92.367188 56.105469 C 92.589844 54.832031 92.753906 53.554688 92.863281 52.265625 C 92.972656 50.976562 93.023438 49.6875 93.019531 48.394531 C 93.019531 47.445312 92.988281 46.5 92.929688 45.558594 L 95.855469 45.375 C 95.917969 46.375 95.945312 47.382812 95.945312 48.394531 C 95.953125 49.773438 95.898438 51.152344 95.78125 52.523438 C 95.664062 53.898438 95.488281 55.261719 95.25 56.621094 C 95.011719 57.980469 94.714844 59.324219 94.359375 60.65625 C 94.003906 61.988281 93.589844 63.300781 93.117188 64.59375 C 92.644531 65.890625 92.117188 67.160156 91.53125 68.410156 C 90.945312 69.65625 90.304688 70.875 89.613281 72.066406 C 88.921875 73.257812 88.175781 74.417969 87.378906 75.542969 C 86.585938 76.667969 85.742188 77.753906 84.847656 78.804688 C 83.957031 79.855469 83.019531 80.863281 82.039062 81.832031 C 81.058594 82.800781 80.035156 83.722656 78.972656 84.597656 C 77.910156 85.472656 76.8125 86.300781 75.675781 87.082031 C 74.539062 87.859375 73.371094 88.589844 72.167969 89.265625 C 70.96875 89.941406 69.742188 90.5625 68.484375 91.128906 C 67.230469 91.695312 65.953125 92.203125 64.652344 92.65625 C 63.351562 93.113281 62.03125 93.507812 60.695312 93.84375 C 59.359375 94.179688 58.011719 94.457031 56.652344 94.671875 Z M 56.652344 94.671875 " fill-opacity="1" fill-rule="nonzero"/></svg>