<svg xmlns="http://www.w3.org/2000/svg" xmlns:xlink="http://www.w3.org/1999/xlink" width="500" zoomAndPan="magnify" viewBox="0 0 375 374.999991" height="500" preserveAspectRatio="xMidYMid meet" version="1.0"><path fill="#eceff8" d="M 26.785156 0 L 348.214844 0 C 349.089844 0 349.964844 0.0429688 350.839844 0.128906 C 351.710938 0.214844 352.578125 0.34375 353.441406 0.515625 C 354.300781 0.6875 355.148438 0.898438 355.988281 1.152344 C 356.828125 1.40625 357.652344 1.703125 358.464844 2.039062 C 359.273438 2.375 360.066406 2.75 360.839844 3.164062 C 361.613281 3.578125 362.367188 4.027344 363.09375 4.515625 C 363.824219 5 364.527344 5.523438 365.207031 6.078125 C 365.886719 6.636719 366.535156 7.226562 367.15625 7.84375 C 367.773438 8.464844 368.363281 9.113281 368.917969 9.792969 C 369.476562 10.472656 370 11.175781 370.484375 11.90625 C 370.972656 12.632812 371.421875 13.386719 371.835938 14.160156 C 372.25 14.933594 372.625 15.726562 372.960938 16.535156 C 373.296875 17.347656 373.59375 18.171875 373.847656 19.011719 C 374.101562 19.851562 374.3125 20.699219 374.484375 21.558594 C 374.65625 22.421875 374.785156 23.289062 374.871094 24.160156 C 374.957031 25.035156 375 25.910156 375 26.785156 L 375 348.214844 C 375 349.089844 374.957031 349.964844 374.871094 350.839844 C 374.785156 351.710938 374.65625 352.578125 374.484375 353.441406 C 374.3125 354.300781 374.101562 355.148438 373.847656 355.988281 C 373.59375 356.828125 373.296875 357.652344 372.960938 358.464844 C 372.625 359.273438 372.25 360.066406 371.835938 360.839844 C 371.421875 361.613281 370.972656 362.367188 370.484375 363.09375 C 370 363.824219 369.476562 364.527344 368.921875 365.207031 C 368.363281 365.886719 367.773438 366.535156 367.15625 367.15625 C 366.535156 367.773438 365.886719 368.363281 365.207031 368.917969 C 364.527344 369.476562 363.824219 370 363.09375 370.484375 C 362.367188 370.972656 361.613281 371.421875 360.839844 371.835938 C 360.066406 372.25 359.273438 372.625 358.464844 372.960938 C 357.652344 373.296875 356.828125 373.59375 355.988281 373.847656 C 355.148438 374.101562 354.300781 374.3125 353.441406 374.484375 C 352.578125 374.65625 351.710938 374.785156 350.839844 374.871094 C 349.964844 374.957031 349.089844 375 348.214844 375 L 26.785156 375 C 25.910156 375 25.035156 374.957031 24.160156 374.871094 C 23.289062 374.785156 22.421875 374.65625 21.558594 374.484375 C 20.699219 374.3125 19.851562 374.101562 19.011719 373.847656 C 18.171875 373.59375 17.347656 373.296875 16.535156 372.960938 C 15.726562 372.625 14.933594 372.25 14.160156 371.835938 C 13.386719 371.421875 12.632812 370.972656 11.90625 370.484375 C 11.175781 370 10.472656 369.476562 9.792969 368.921875 C 9.113281 368.363281 8.464844 367.773438 7.84375 367.15625 C 7.226562 366.535156 6.636719 365.886719 6.078125 365.207031 C 5.523438 364.527344 5 363.824219 4.515625 363.09375 C 4.027344 362.367188 3.578125 361.613281 3.164062 360.839844 C 2.75 360.066406 2.375 359.273438 2.039062 358.464844 C 1.703125 357.652344 1.40625 356.828125 1.152344 355.988281 C 0.898438 355.148438 0.6875 354.300781 0.515625 353.441406 C 0.34375 352.578125 0.214844 351.710938 0.128906 350.839844 C 0.0429688 349.964844 0 349.089844 0 348.214844 L 0 26.785156 C 0 25.910156 0.0429688 25.035156 0.128906 24.160156 C 0.214844 23.289062 0.34375 22.421875 0.515625 21.558594 C 0.6875 20.699219 0.898438 19.851562 1.152344 19.011719 C 1.40625 18.171875 1.703125 17.347656 2.039062 16.535156 C 2.375 15.726562 2.75 14.933594 3.164062 14.160156 C 3.578125 13.386719 4.027344 12.632812 4.515625 11.90625 C 5 11.175781 5.523438 10.472656 6.078125 9.792969 C 6.636719 9.113281 7.226562 8.464844 7.84375 7.84375 C 8.464844 7.226562 9.113281 6.636719 9.792969 6.078125 C 10.472656 5.523438 11.175781 5 11.90625 4.515625 C 12.632812 4.027344 13.386719 3.578125 14.160156 3.164062 C 14.933594 2.75 15.726562 2.375 16.535156 2.039062 C 17.347656 1.703125 18.171875 1.40625 19.011719 1.152344 C 19.851562 0.898438 20.699219 0.6875 21.558594 0.515625 C 22.421875 0.34375 23.289062 0.214844 24.160156 0.128906 C 25.035156 0.0429688 25.910156 0 26.785156 0 Z M 26.785156 0 " fill-opacity="1" fill-rule="nonzero"/><path fill="#53687e" d="M 330.355469 178.570312 L 196.429688 178.570312 L 196.429688 44.644531 C 196.429688 44.054688 196.371094 43.476562 196.257812 42.902344 C 196.144531 42.324219 195.972656 41.769531 195.75 41.226562 C 195.523438 40.683594 195.25 40.167969 194.921875 39.683594 C 194.597656 39.195312 194.226562 38.742188 193.8125 38.328125 C 193.398438 37.914062 192.949219 37.542969 192.460938 37.21875 C 191.972656 36.894531 191.457031 36.617188 190.917969 36.394531 C 190.375 36.167969 189.816406 36 189.242188 35.886719 C 188.667969 35.769531 188.085938 35.714844 187.5 35.714844 C 186.914062 35.714844 186.332031 35.769531 185.757812 35.886719 C 185.183594 36 184.625 36.167969 184.082031 36.394531 C 183.542969 36.617188 183.027344 36.894531 182.539062 37.21875 C 182.050781 37.542969 181.601562 37.914062 181.1875 38.328125 C 180.773438 38.742188 180.402344 39.195312 180.074219 39.683594 C 179.75 40.167969 179.476562 40.683594 179.25 41.226562 C 179.027344 41.769531 178.855469 42.324219 178.742188 42.902344 C 178.628906 43.476562 178.570312 44.054688 178.570312 44.644531 L 178.570312 178.570312 L 44.644531 178.570312 C 44.054688 178.570312 43.476562 178.628906 42.902344 178.742188 C 42.324219 178.855469 41.769531 179.027344 41.226562 179.25 C 40.683594 179.476562 40.167969 179.75 39.683594 180.074219 C 39.195312 180.402344 38.742188 180.773438 38.328125 181.1875 C 37.914062 181.601562 37.542969 182.050781 37.21875 182.539062 C 36.894531 183.027344 36.617188 183.542969 36.394531 184.082031 C 36.167969 184.625 36 185.183594 35.886719 185.757812 C 35.769531 186.332031 35.714844 186.914062 35.714844 187.5 C 35.714844 188.085938 35.769531 188.667969 35.886719 189.242188 C 36 189.816406 36.167969 190.375 36.394531 190.917969 C 36.617188 191.457031 36.894531 191.972656 37.21875 192.460938 C 37.542969 192.949219 37.914062 193.398438 38.328125 193.8125 C 38.742188 194.226562 39.195312 194.597656 39.683594 194.921875 C 40.167969 195.25 40.683594 195.523438 41.226562 195.75 C 41.769531 195.972656 42.324219 196.140625 42.902344 196.257812 C 43.476562 196.371094 44.054688 196.429688 44.644531 196.429688 L 178.570312 196.429688 L 178.570312 330.355469 C 178.570312 330.945312 178.628906 331.523438 178.742188 332.097656 C 178.855469 332.675781 179.027344 333.230469 179.25 333.773438 C 179.476562 334.316406 179.75 334.828125 180.074219 335.316406 C 180.402344 335.804688 180.773438 336.257812 181.1875 336.671875 C 181.601562 337.085938 182.050781 337.457031 182.539062 337.78125 C 183.027344 338.105469 183.542969 338.382812 184.082031 338.605469 C 184.625 338.832031 185.183594 339 185.757812 339.113281 C 186.332031 339.226562 186.914062 339.285156 187.5 339.285156 C 188.085938 339.285156 188.667969 339.226562 189.242188 339.113281 C 189.816406 339 190.375 338.832031 190.917969 338.605469 C 191.457031 338.382812 191.972656 338.105469 192.460938 337.78125 C 192.949219 337.457031 193.398438 337.085938 193.8125 336.671875 C 194.226562 336.257812 194.597656 335.804688 194.921875 335.316406 C 195.25 334.828125 195.523438 334.316406 195.75 333.773438 C 195.972656 333.230469 196.144531 332.675781 196.257812 332.097656 C 196.371094 331.523438 196.429688 330.945312 196.429688 330.355469 L 196.429688 196.429688 L 330.355469 196.429688 C 330.945312 196.429688 331.523438 196.371094 332.097656 196.257812 C 332.675781 196.144531 333.230469 195.972656 333.773438 195.75 C 334.316406 195.523438 334.828125 195.25 335.316406 194.921875 C 335.804688 194.597656 336.257812 194.226562 336.671875 193.8125 C 337.085938 193.398438 337.457031 192.949219 337.78125 192.460938 C 338.105469 191.972656 338.382812 191.457031 338.605469 190.917969 C 338.832031 190.375 339 189.816406 339.113281 189.242188 C 339.226562 188.667969 339.285156 188.085938 339.285156 187.5 C 339.285156 186.914062 339.226562 186.332031 339.113281 185.757812 C 339 185.183594 338.832031 184.625 338.605469 184.082031 C 338.382812 183.542969 338.105469 183.027344 337.78125 182.539062 C 337.457031 182.050781 337.085938 181.601562 336.671875 181.1875 C 336.257812 180.773438 335.804688 180.402344 335.316406 180.074219 C 334.828125 179.75 334.316406 179.476562 333.773438 179.25 C 333.230469 179.027344 332.675781 178.855469 332.097656 178.742188 C 331.523438 178.628906 330.945312 178.570312 330.355469 178.570312 Z M 330.355469 178.570312 " fill-opacity="1" fill-rule="nonzero"/><path fill="#00bfbd" d="M 276.785156 160.714844 C 274.738281 160.714844 272.695312 160.613281 270.660156 160.414062 C 268.621094 160.210938 266.601562 159.914062 264.59375 159.511719 C 262.585938 159.113281 260.601562 158.617188 258.644531 158.023438 C 256.683594 157.429688 254.757812 156.738281 252.867188 155.957031 C 250.976562 155.171875 249.128906 154.300781 247.324219 153.335938 C 245.519531 152.371094 243.765625 151.316406 242.0625 150.179688 C 240.359375 149.042969 238.71875 147.824219 237.136719 146.527344 C 235.554688 145.230469 234.039062 143.855469 232.589844 142.410156 C 231.144531 140.960938 229.769531 139.445312 228.472656 137.863281 C 227.175781 136.28125 225.957031 134.640625 224.820312 132.9375 C 223.679688 131.234375 222.628906 129.480469 221.664062 127.675781 C 220.699219 125.871094 219.828125 124.023438 219.042969 122.132812 C 218.261719 120.242188 217.570312 118.316406 216.976562 116.355469 C 216.382812 114.398438 215.886719 112.414062 215.488281 110.40625 C 215.085938 108.398438 214.789062 106.378906 214.585938 104.339844 C 214.386719 102.304688 214.285156 100.261719 214.285156 98.214844 C 214.285156 96.167969 214.386719 94.125 214.585938 92.089844 C 214.789062 90.050781 215.085938 88.027344 215.488281 86.019531 C 215.886719 84.011719 216.382812 82.03125 216.976562 80.070312 C 217.570312 78.113281 218.261719 76.1875 219.042969 74.296875 C 219.828125 72.40625 220.699219 70.558594 221.664062 68.753906 C 222.628906 66.945312 223.679688 65.191406 224.820312 63.492188 C 225.957031 61.789062 227.175781 60.148438 228.472656 58.566406 C 229.769531 56.980469 231.144531 55.46875 232.589844 54.019531 C 234.039062 52.574219 235.554688 51.199219 237.136719 49.902344 C 238.71875 48.601562 240.359375 47.382812 242.0625 46.246094 C 243.765625 45.109375 245.519531 44.058594 247.324219 43.09375 C 249.128906 42.128906 250.976562 41.253906 252.867188 40.472656 C 254.757812 39.6875 256.683594 39 258.644531 38.40625 C 260.601562 37.8125 262.585938 37.316406 264.59375 36.914062 C 266.601562 36.515625 268.621094 36.214844 270.660156 36.015625 C 272.695312 35.816406 274.738281 35.714844 276.785156 35.714844 C 278.832031 35.714844 280.875 35.816406 282.910156 36.015625 C 284.949219 36.214844 286.972656 36.515625 288.980469 36.914062 C 290.988281 37.316406 292.96875 37.8125 294.929688 38.40625 C 296.886719 39 298.8125 39.6875 300.703125 40.472656 C 302.59375 41.253906 304.441406 42.128906 306.246094 43.09375 C 308.054688 44.058594 309.808594 45.109375 311.507812 46.246094 C 313.210938 47.382812 314.851562 48.601562 316.433594 49.902344 C 318.015625 51.199219 319.53125 52.574219 320.980469 54.019531 C 322.425781 55.46875 323.800781 56.980469 325.097656 58.566406 C 326.398438 60.148438 327.617188 61.789062 328.753906 63.492188 C 329.890625 65.191406 330.941406 66.945312 331.90625 68.753906 C 332.871094 70.558594 333.746094 72.40625 334.527344 74.296875 C 335.3125 76.1875 336 78.113281 336.59375 80.070312 C 337.1875 82.03125 337.683594 84.011719 338.085938 86.019531 C 338.484375 88.027344 338.785156 90.050781 338.984375 92.089844 C 339.183594 94.125 339.285156 96.167969 339.285156 98.214844 C 339.285156 100.261719 339.179688 102.300781 338.976562 104.339844 C 338.777344 106.375 338.472656 108.394531 338.074219 110.402344 C 337.671875 112.410156 337.171875 114.390625 336.578125 116.347656 C 335.984375 118.308594 335.292969 120.230469 334.507812 122.121094 C 333.722656 124.011719 332.851562 125.859375 331.882812 127.664062 C 330.917969 129.464844 329.867188 131.21875 328.730469 132.921875 C 327.59375 134.621094 326.375 136.261719 325.078125 137.84375 C 323.777344 139.425781 322.40625 140.941406 320.957031 142.386719 C 319.511719 143.835938 317.996094 145.207031 316.414062 146.503906 C 314.835938 147.804688 313.191406 149.019531 311.492188 150.160156 C 309.789062 151.296875 308.039062 152.347656 306.234375 153.3125 C 304.429688 154.277344 302.582031 155.152344 300.691406 155.9375 C 298.800781 156.722656 296.878906 157.410156 294.921875 158.007812 C 292.960938 158.601562 290.980469 159.101562 288.972656 159.5 C 286.96875 159.902344 284.945312 160.203125 282.910156 160.40625 C 280.875 160.609375 278.832031 160.710938 276.785156 160.714844 Z M 276.785156 53.570312 C 275.324219 53.570312 273.863281 53.644531 272.410156 53.785156 C 270.953125 53.929688 269.511719 54.144531 268.078125 54.429688 C 266.640625 54.714844 265.226562 55.070312 263.828125 55.492188 C 262.425781 55.917969 261.050781 56.410156 259.703125 56.96875 C 258.351562 57.527344 257.03125 58.152344 255.742188 58.84375 C 254.453125 59.53125 253.199219 60.28125 251.984375 61.09375 C 250.769531 61.90625 249.59375 62.777344 248.464844 63.703125 C 247.335938 64.632812 246.253906 65.613281 245.21875 66.648438 C 244.183594 67.679688 243.203125 68.761719 242.277344 69.894531 C 241.347656 71.023438 240.480469 72.195312 239.667969 73.410156 C 238.855469 74.628906 238.101562 75.878906 237.414062 77.167969 C 236.726562 78.460938 236.101562 79.78125 235.542969 81.128906 C 234.980469 82.480469 234.488281 83.855469 234.066406 85.253906 C 233.640625 86.652344 233.285156 88.070312 233 89.503906 C 232.714844 90.9375 232.5 92.382812 232.359375 93.839844 C 232.214844 95.292969 232.144531 96.753906 232.144531 98.214844 C 232.144531 99.675781 232.214844 101.136719 232.359375 102.589844 C 232.5 104.046875 232.714844 105.488281 233 106.921875 C 233.285156 108.359375 233.640625 109.773438 234.066406 111.171875 C 234.488281 112.574219 234.980469 113.949219 235.542969 115.296875 C 236.101562 116.648438 236.726562 117.96875 237.414062 119.257812 C 238.101562 120.546875 238.855469 121.800781 239.667969 123.015625 C 240.480469 124.230469 241.347656 125.40625 242.277344 126.535156 C 243.203125 127.664062 244.183594 128.746094 245.21875 129.78125 C 246.253906 130.816406 247.335938 131.796875 248.464844 132.722656 C 249.59375 133.652344 250.769531 134.519531 251.984375 135.332031 C 253.199219 136.144531 254.453125 136.898438 255.742188 137.585938 C 257.03125 138.273438 258.351562 138.898438 259.703125 139.457031 C 261.050781 140.019531 262.425781 140.511719 263.828125 140.933594 C 265.226562 141.359375 266.640625 141.714844 268.078125 142 C 269.511719 142.285156 270.953125 142.5 272.410156 142.640625 C 273.863281 142.785156 275.324219 142.855469 276.785156 142.855469 C 278.246094 142.855469 279.707031 142.785156 281.160156 142.640625 C 282.617188 142.5 284.0625 142.285156 285.496094 142 C 286.929688 141.714844 288.34375 141.359375 289.746094 140.933594 C 291.144531 140.511719 292.519531 140.019531 293.871094 139.457031 C 295.21875 138.898438 296.539062 138.273438 297.832031 137.585938 C 299.121094 136.898438 300.371094 136.144531 301.589844 135.332031 C 302.804688 134.519531 303.976562 133.652344 305.105469 132.722656 C 306.238281 131.796875 307.320312 130.816406 308.351562 129.78125 C 309.386719 128.746094 310.367188 127.664062 311.296875 126.535156 C 312.222656 125.40625 313.09375 124.230469 313.90625 123.015625 C 314.71875 121.800781 315.46875 120.546875 316.15625 119.257812 C 316.847656 117.96875 317.472656 116.648438 318.03125 115.296875 C 318.589844 113.949219 319.082031 112.574219 319.507812 111.171875 C 319.929688 109.773438 320.285156 108.359375 320.570312 106.921875 C 320.855469 105.488281 321.070312 104.046875 321.214844 102.589844 C 321.355469 101.136719 321.429688 99.675781 321.429688 98.214844 C 321.425781 96.753906 321.355469 95.292969 321.207031 93.839844 C 321.0625 92.386719 320.847656 90.941406 320.5625 89.507812 C 320.277344 88.074219 319.917969 86.660156 319.496094 85.261719 C 319.070312 83.863281 318.578125 82.488281 318.015625 81.136719 C 317.457031 79.789062 316.832031 78.46875 316.140625 77.179688 C 315.453125 75.890625 314.699219 74.640625 313.886719 73.425781 C 313.078125 72.210938 312.207031 71.035156 311.277344 69.90625 C 310.351562 68.777344 309.371094 67.695312 308.335938 66.664062 C 307.304688 65.628906 306.222656 64.648438 305.09375 63.722656 C 303.960938 62.792969 302.789062 61.921875 301.574219 61.113281 C 300.359375 60.300781 299.109375 59.546875 297.820312 58.859375 C 296.53125 58.167969 295.210938 57.542969 293.863281 56.984375 C 292.511719 56.421875 291.136719 55.929688 289.738281 55.503906 C 288.339844 55.082031 286.925781 54.722656 285.492188 54.4375 C 284.058594 54.152344 282.613281 53.9375 281.160156 53.792969 C 279.707031 53.644531 278.246094 53.574219 276.785156 53.570312 Z M 276.785156 53.570312 " fill-opacity="1" fill-rule="nonzero"/><path fill="#00bfbd" d="M 98.214844 339.285156 C 96.167969 339.285156 94.125 339.183594 92.089844 338.984375 C 90.050781 338.785156 88.027344 338.484375 86.019531 338.085938 C 84.011719 337.683594 82.03125 337.1875 80.070312 336.59375 C 78.113281 336 76.1875 335.3125 74.296875 334.527344 C 72.40625 333.746094 70.558594 332.871094 68.753906 331.90625 C 66.945312 330.941406 65.191406 329.890625 63.492188 328.753906 C 61.789062 327.617188 60.148438 326.398438 58.566406 325.097656 C 56.980469 323.800781 55.46875 322.425781 54.019531 320.980469 C 52.574219 319.53125 51.199219 318.015625 49.902344 316.433594 C 48.601562 314.851562 47.382812 313.210938 46.246094 311.507812 C 45.109375 309.808594 44.058594 308.054688 43.09375 306.246094 C 42.128906 304.441406 41.253906 302.59375 40.472656 300.703125 C 39.6875 298.8125 39 296.886719 38.40625 294.929688 C 37.8125 292.96875 37.316406 290.988281 36.914062 288.980469 C 36.515625 286.972656 36.214844 284.949219 36.015625 282.910156 C 35.816406 280.875 35.714844 278.832031 35.714844 276.785156 C 35.714844 274.738281 35.816406 272.695312 36.015625 270.660156 C 36.214844 268.621094 36.515625 266.601562 36.914062 264.59375 C 37.316406 262.585938 37.8125 260.601562 38.40625 258.644531 C 39 256.683594 39.6875 254.757812 40.472656 252.867188 C 41.253906 250.976562 42.128906 249.128906 43.09375 247.324219 C 44.058594 245.519531 45.109375 243.765625 46.246094 242.0625 C 47.382812 240.359375 48.601562 238.71875 49.902344 237.136719 C 51.199219 235.554688 52.574219 234.039062 54.019531 232.589844 C 55.46875 231.144531 56.980469 229.769531 58.566406 228.472656 C 60.148438 227.175781 61.789062 225.957031 63.492188 224.820312 C 65.191406 223.679688 66.945312 222.628906 68.753906 221.664062 C 70.558594 220.699219 72.40625 219.828125 74.296875 219.042969 C 76.1875 218.261719 78.113281 217.570312 80.070312 216.976562 C 82.03125 216.382812 84.011719 215.886719 86.019531 215.488281 C 88.027344 215.085938 90.050781 214.789062 92.089844 214.585938 C 94.125 214.386719 96.167969 214.285156 98.214844 214.285156 C 100.261719 214.285156 102.304688 214.386719 104.339844 214.585938 C 106.378906 214.789062 108.398438 215.085938 110.40625 215.488281 C 112.414062 215.886719 114.398438 216.382812 116.355469 216.976562 C 118.316406 217.570312 120.242188 218.261719 122.132812 219.042969 C 124.023438 219.828125 125.871094 220.699219 127.675781 221.664062 C 129.480469 222.628906 131.234375 223.679688 132.9375 224.820312 C 134.640625 225.957031 136.28125 227.175781 137.863281 228.472656 C 139.445312 229.769531 140.960938 231.144531 142.410156 232.589844 C 143.855469 234.039062 145.230469 235.554688 146.527344 237.136719 C 147.824219 238.71875 149.042969 240.359375 150.179688 242.0625 C 151.316406 243.765625 152.371094 245.519531 153.335938 247.324219 C 154.300781 249.128906 155.171875 250.976562 155.957031 252.867188 C 156.738281 254.757812 157.429688 256.683594 158.023438 258.644531 C 158.617188 260.601562 159.113281 262.585938 159.511719 264.59375 C 159.914062 266.601562 160.210938 268.621094 160.414062 270.660156 C 160.613281 272.695312 160.714844 274.738281 160.714844 276.785156 C 160.710938 278.832031 160.609375 280.875 160.40625 282.910156 C 160.203125 284.945312 159.902344 286.96875 159.5 288.972656 C 159.101562 290.980469 158.601562 292.960938 158.007812 294.921875 C 157.410156 296.878906 156.722656 298.800781 155.9375 300.691406 C 155.152344 302.582031 154.277344 304.429688 153.3125 306.234375 C 152.347656 308.039062 151.296875 309.789062 150.160156 311.492188 C 149.023438 313.191406 147.804688 314.835938 146.503906 316.414062 C 145.207031 317.996094 143.835938 319.511719 142.386719 320.957031 C 140.941406 322.40625 139.425781 323.777344 137.84375 325.078125 C 136.261719 326.375 134.621094 327.59375 132.921875 328.730469 C 131.21875 329.867188 129.464844 330.917969 127.664062 331.882812 C 125.859375 332.851562 124.011719 333.722656 122.121094 334.507812 C 120.230469 335.292969 118.308594 335.984375 116.347656 336.578125 C 114.390625 337.171875 112.410156 337.671875 110.402344 338.074219 C 108.394531 338.472656 106.375 338.777344 104.339844 338.976562 C 102.300781 339.179688 100.261719 339.285156 98.214844 339.285156 Z M 98.214844 232.144531 C 96.753906 232.144531 95.292969 232.214844 93.839844 232.359375 C 92.382812 232.5 90.9375 232.714844 89.503906 233 C 88.070312 233.285156 86.652344 233.640625 85.253906 234.066406 C 83.855469 234.488281 82.480469 234.980469 81.128906 235.542969 C 79.78125 236.101562 78.460938 236.726562 77.167969 237.414062 C 75.878906 238.101562 74.628906 238.855469 73.410156 239.667969 C 72.195312 240.480469 71.023438 241.347656 69.894531 242.277344 C 68.761719 243.203125 67.679688 244.183594 66.648438 245.21875 C 65.613281 246.253906 64.632812 247.335938 63.703125 248.464844 C 62.777344 249.59375 61.90625 250.769531 61.09375 251.984375 C 60.28125 253.199219 59.53125 254.453125 58.84375 255.742188 C 58.152344 257.03125 57.527344 258.351562 56.96875 259.703125 C 56.410156 261.050781 55.917969 262.425781 55.492188 263.828125 C 55.070312 265.226562 54.714844 266.640625 54.429688 268.078125 C 54.144531 269.511719 53.929688 270.953125 53.785156 272.410156 C 53.644531 273.863281 53.570312 275.324219 53.570312 276.785156 C 53.570312 278.246094 53.644531 279.707031 53.785156 281.160156 C 53.929688 282.617188 54.144531 284.0625 54.429688 285.496094 C 54.714844 286.929688 55.070312 288.34375 55.492188 289.746094 C 55.917969 291.144531 56.410156 292.519531 56.96875 293.871094 C 57.527344 295.21875 58.152344 296.539062 58.84375 297.832031 C 59.53125 299.121094 60.28125 300.371094 61.09375 301.589844 C 61.90625 302.804688 62.777344 303.976562 63.703125 305.105469 C 64.632812 306.238281 65.613281 307.320312 66.648438 308.351562 C 67.679688 309.386719 68.761719 310.367188 69.894531 311.296875 C 71.023438 312.222656 72.195312 313.09375 73.410156 313.90625 C 74.628906 314.71875 75.878906 315.46875 77.167969 316.15625 C 78.460938 316.847656 79.78125 317.472656 81.128906 318.03125 C 82.480469 318.589844 83.855469 319.082031 85.253906 319.507812 C 86.652344 319.929688 88.070312 320.285156 89.503906 320.570312 C 90.9375 320.855469 92.382812 321.070312 93.839844 321.214844 C 95.292969 321.355469 96.753906 321.429688 98.214844 321.429688 C 99.675781 321.429688 101.136719 321.355469 102.589844 321.214844 C 104.046875 321.070312 105.488281 320.855469 106.921875 320.570312 C 108.359375 320.285156 109.773438 319.929688 111.171875 319.507812 C 112.574219 319.082031 113.949219 318.589844 115.296875 318.03125 C 116.648438 317.472656 117.96875 316.847656 119.257812 316.15625 C 120.546875 315.46875 121.800781 314.71875 123.015625 313.90625 C 124.230469 313.09375 125.40625 312.222656 126.535156 311.296875 C 127.664062 310.367188 128.746094 309.386719 129.78125 308.351562 C 130.816406 307.320312 131.796875 306.238281 132.722656 305.105469 C 133.652344 303.976562 134.519531 302.804688 135.332031 301.589844 C 136.144531 300.371094 136.898438 299.121094 137.585938 297.832031 C 138.273438 296.539062 138.898438 295.21875 139.457031 293.871094 C 140.019531 292.519531 140.511719 291.144531 140.933594 289.746094 C 141.359375 288.34375 141.714844 286.929688 142 285.496094 C 142.285156 284.0625 142.5 282.617188 142.640625 281.160156 C 142.785156 279.707031 142.855469 278.246094 142.855469 276.785156 C 142.855469 275.324219 142.78125 273.867188 142.636719 272.410156 C 142.492188 270.957031 142.277344 269.511719 141.992188 268.078125 C 141.703125 266.648438 141.347656 265.230469 140.921875 263.832031 C 140.496094 262.433594 140.003906 261.058594 139.445312 259.710938 C 138.882812 258.359375 138.261719 257.039062 137.570312 255.75 C 136.878906 254.464844 136.128906 253.210938 135.316406 251.996094 C 134.503906 250.78125 133.636719 249.609375 132.707031 248.480469 C 131.78125 247.347656 130.800781 246.265625 129.765625 245.234375 C 128.734375 244.199219 127.652344 243.21875 126.519531 242.292969 C 125.390625 241.363281 124.21875 240.496094 123.003906 239.683594 C 121.789062 238.871094 120.535156 238.121094 119.25 237.429688 C 117.960938 236.738281 116.640625 236.117188 115.289062 235.554688 C 113.941406 234.996094 112.566406 234.503906 111.167969 234.078125 C 109.769531 233.652344 108.351562 233.296875 106.921875 233.007812 C 105.488281 232.722656 104.042969 232.507812 102.589844 232.363281 C 101.132812 232.21875 99.675781 232.144531 98.214844 232.144531 Z M 98.214844 232.144531 " fill-opacity="1" fill-rule="nonzero"/><path fill="#ed6c47" d="M 289.410156 276.785156 L 327.742188 238.457031 C 328.15625 238.039062 328.523438 237.589844 328.847656 237.101562 C 329.171875 236.613281 329.445312 236.101562 329.667969 235.558594 C 329.894531 235.019531 330.0625 234.460938 330.175781 233.886719 C 330.289062 233.3125 330.34375 232.730469 330.34375 232.144531 C 330.34375 231.5625 330.285156 230.980469 330.171875 230.40625 C 330.058594 229.832031 329.886719 229.273438 329.664062 228.734375 C 329.4375 228.191406 329.164062 227.679688 328.839844 227.191406 C 328.511719 226.707031 328.144531 226.253906 327.730469 225.839844 C 327.316406 225.425781 326.867188 225.058594 326.378906 224.734375 C 325.890625 224.40625 325.378906 224.132812 324.835938 223.90625 C 324.296875 223.683594 323.738281 223.515625 323.164062 223.398438 C 322.589844 223.285156 322.011719 223.226562 321.425781 223.226562 C 320.839844 223.226562 320.257812 223.28125 319.683594 223.398438 C 319.109375 223.511719 318.554688 223.679688 318.011719 223.902344 C 317.472656 224.125 316.957031 224.398438 316.46875 224.722656 C 315.980469 225.046875 315.53125 225.417969 315.117188 225.832031 L 276.785156 264.160156 L 238.457031 225.832031 C 238.039062 225.417969 237.589844 225.046875 237.101562 224.722656 C 236.613281 224.398438 236.101562 224.125 235.558594 223.902344 C 235.019531 223.679688 234.460938 223.511719 233.886719 223.398438 C 233.3125 223.28125 232.730469 223.226562 232.144531 223.226562 C 231.5625 223.226562 230.980469 223.285156 230.40625 223.398438 C 229.832031 223.515625 229.273438 223.683594 228.734375 223.90625 C 228.191406 224.132812 227.679688 224.40625 227.191406 224.734375 C 226.707031 225.058594 226.253906 225.425781 225.839844 225.839844 C 225.425781 226.253906 225.058594 226.707031 224.734375 227.191406 C 224.40625 227.679688 224.132812 228.191406 223.90625 228.734375 C 223.683594 229.273438 223.515625 229.832031 223.398438 230.40625 C 223.285156 230.980469 223.226562 231.5625 223.226562 232.144531 C 223.226562 232.730469 223.28125 233.3125 223.398438 233.886719 C 223.511719 234.460938 223.679688 235.019531 223.902344 235.558594 C 224.125 236.101562 224.398438 236.613281 224.722656 237.101562 C 225.046875 237.589844 225.417969 238.039062 225.832031 238.457031 L 264.160156 276.785156 L 225.832031 315.117188 C 225.417969 315.53125 225.046875 315.980469 224.722656 316.46875 C 224.398438 316.957031 224.125 317.472656 223.902344 318.011719 C 223.679688 318.554688 223.511719 319.109375 223.398438 319.683594 C 223.28125 320.257812 223.226562 320.839844 223.226562 321.425781 C 223.226562 322.011719 223.285156 322.589844 223.398438 323.164062 C 223.515625 323.738281 223.683594 324.296875 223.90625 324.835938 C 224.132812 325.378906 224.40625 325.890625 224.734375 326.378906 C 225.058594 326.867188 225.425781 327.316406 225.839844 327.730469 C 226.253906 328.144531 226.707031 328.511719 227.191406 328.839844 C 227.679688 329.164062 228.191406 329.4375 228.734375 329.664062 C 229.273438 329.886719 229.832031 330.058594 230.40625 330.171875 C 230.980469 330.285156 231.5625 330.34375 232.144531 330.34375 C 232.730469 330.34375 233.3125 330.289062 233.886719 330.175781 C 234.460938 330.0625 235.019531 329.894531 235.558594 329.667969 C 236.101562 329.445312 236.613281 329.171875 237.101562 328.847656 C 237.589844 328.523438 238.039062 328.15625 238.457031 327.742188 L 276.785156 289.410156 L 315.117188 327.742188 C 315.53125 328.15625 315.980469 328.523438 316.46875 328.847656 C 316.957031 329.171875 317.472656 329.445312 318.011719 329.667969 C 318.554688 329.894531 319.109375 330.0625 319.683594 330.175781 C 320.261719 330.289062 320.839844 330.34375 321.425781 330.34375 C 322.011719 330.34375 322.589844 330.285156 323.164062 330.171875 C 323.738281 330.058594 324.296875 329.886719 324.835938 329.664062 C 325.378906 329.4375 325.890625 329.164062 326.378906 328.839844 C 326.867188 328.511719 327.316406 328.144531 327.730469 327.730469 C 328.144531 327.316406 328.511719 326.867188 328.839844 326.378906 C 329.164062 325.890625 329.4375 325.378906 329.664062 324.835938 C 329.886719 324.296875 330.058594 323.738281 330.171875 323.164062 C 330.285156 322.589844 330.34375 322.011719 330.34375 321.425781 C 330.34375 320.839844 330.289062 320.261719 330.175781 319.683594 C 330.0625 319.109375 329.894531 318.554688 329.667969 318.011719 C 329.445312 317.472656 329.171875 316.957031 328.847656 316.46875 C 328.523438 315.980469 328.15625 315.53125 327.742188 315.117188 Z M 289.410156 276.785156 " fill-opacity="1" fill-rule="nonzero"/><path fill="#ed6c47" d="M 110.839844 98.214844 L 149.167969 59.882812 C 149.582031 59.46875 149.953125 59.019531 150.277344 58.53125 C 150.601562 58.042969 150.875 57.527344 151.101562 56.988281 C 151.324219 56.445312 151.492188 55.890625 151.605469 55.3125 C 151.71875 54.738281 151.777344 54.160156 151.777344 53.574219 C 151.773438 52.988281 151.71875 52.410156 151.601562 51.832031 C 151.488281 51.257812 151.320312 50.703125 151.09375 50.160156 C 150.871094 49.621094 150.597656 49.105469 150.269531 48.621094 C 149.945312 48.132812 149.574219 47.683594 149.160156 47.269531 C 148.746094 46.851562 148.296875 46.484375 147.808594 46.160156 C 147.324219 45.832031 146.808594 45.558594 146.269531 45.332031 C 145.726562 45.109375 145.167969 44.941406 144.59375 44.824219 C 144.019531 44.710938 143.441406 44.652344 142.855469 44.652344 C 142.269531 44.652344 141.6875 44.710938 141.113281 44.824219 C 140.539062 44.9375 139.980469 45.105469 139.441406 45.328125 C 138.898438 45.550781 138.386719 45.828125 137.898438 46.152344 C 137.410156 46.476562 136.960938 46.84375 136.542969 47.257812 L 98.214844 85.589844 L 59.882812 47.257812 C 59.46875 46.84375 59.019531 46.476562 58.53125 46.148438 C 58.042969 45.824219 57.527344 45.550781 56.988281 45.328125 C 56.445312 45.101562 55.886719 44.933594 55.3125 44.820312 C 54.738281 44.707031 54.160156 44.648438 53.574219 44.648438 C 52.988281 44.648438 52.40625 44.707031 51.832031 44.820312 C 51.257812 44.9375 50.699219 45.105469 50.160156 45.328125 C 49.617188 45.554688 49.101562 45.828125 48.617188 46.152344 C 48.128906 46.480469 47.679688 46.847656 47.265625 47.265625 C 46.847656 47.679688 46.480469 48.128906 46.152344 48.617188 C 45.828125 49.101562 45.554688 49.617188 45.328125 50.160156 C 45.105469 50.699219 44.9375 51.257812 44.820312 51.832031 C 44.707031 52.40625 44.648438 52.988281 44.648438 53.574219 C 44.648438 54.160156 44.707031 54.738281 44.820312 55.3125 C 44.933594 55.886719 45.101562 56.445312 45.328125 56.988281 C 45.550781 57.527344 45.824219 58.042969 46.148438 58.53125 C 46.476562 59.019531 46.84375 59.46875 47.257812 59.882812 L 85.589844 98.214844 L 47.257812 136.542969 C 46.84375 136.960938 46.476562 137.410156 46.152344 137.898438 C 45.828125 138.386719 45.550781 138.898438 45.328125 139.441406 C 45.105469 139.980469 44.9375 140.539062 44.824219 141.113281 C 44.710938 141.6875 44.652344 142.269531 44.652344 142.855469 C 44.652344 143.441406 44.710938 144.019531 44.824219 144.59375 C 44.941406 145.167969 45.109375 145.726562 45.332031 146.265625 C 45.558594 146.808594 45.832031 147.324219 46.160156 147.808594 C 46.484375 148.296875 46.855469 148.746094 47.269531 149.160156 C 47.683594 149.574219 48.132812 149.945312 48.621094 150.269531 C 49.105469 150.597656 49.621094 150.871094 50.160156 151.09375 C 50.703125 151.320312 51.257812 151.488281 51.835938 151.601562 C 52.410156 151.71875 52.988281 151.773438 53.574219 151.777344 C 54.160156 151.777344 54.738281 151.71875 55.3125 151.605469 C 55.890625 151.492188 56.445312 151.324219 56.988281 151.101562 C 57.527344 150.875 58.042969 150.601562 58.53125 150.277344 C 59.019531 149.953125 59.46875 149.582031 59.882812 149.167969 L 98.214844 110.839844 L 136.542969 149.167969 C 136.960938 149.582031 137.410156 149.953125 137.898438 150.277344 C 138.386719 150.601562 138.898438 150.875 139.441406 151.097656 C 139.980469 151.320312 140.539062 151.488281 141.113281 151.601562 C 141.6875 151.71875 142.269531 151.773438 142.855469 151.773438 C 143.4375 151.773438 144.019531 151.714844 144.59375 151.601562 C 145.167969 151.484375 145.726562 151.316406 146.265625 151.09375 C 146.804688 150.867188 147.320312 150.59375 147.808594 150.265625 C 148.292969 149.941406 148.746094 149.574219 149.160156 149.160156 C 149.574219 148.746094 149.941406 148.292969 150.265625 147.808594 C 150.59375 147.320312 150.867188 146.804688 151.09375 146.265625 C 151.316406 145.726562 151.484375 145.167969 151.601562 144.59375 C 151.714844 144.019531 151.773438 143.4375 151.773438 142.855469 C 151.773438 142.269531 151.71875 141.6875 151.601562 141.113281 C 151.488281 140.539062 151.320312 139.980469 151.097656 139.441406 C 150.875 138.898438 150.601562 138.386719 150.277344 137.898438 C 149.953125 137.410156 149.582031 136.960938 149.167969 136.542969 Z M 110.839844 98.214844 " fill-opacity="1" fill-rule="nonzero"/></svg>