<svg xmlns="http://www.w3.org/2000/svg" xmlns:xlink="http://www.w3.org/1999/xlink" width="500" zoomAndPan="magnify" viewBox="0 0 375 374.999991" height="500" preserveAspectRatio="xMidYMid meet" version="1.0"><defs><clipPath id="c5a5fbb3bb"><path d="M 0 11.933594 L 375 11.933594 L 375 362.933594 L 0 362.933594 Z M 0 11.933594 " clip-rule="nonzero"/></clipPath></defs><path fill="#a8dee1" d="M 348.839844 116.160156 L 316.078125 116.160156 L 316.078125 98.847656 C 316.078125 93.910156 312.089844 89.925781 307.152344 89.925781 L 302.660156 89.925781 C 297.71875 89.925781 293.730469 93.910156 293.730469 98.847656 L 293.730469 116.160156 L 233.148438 116.160156 C 225.828125 59.050781 177.292969 14.90625 118.554688 14.90625 C 54.726562 14.90625 3.007812 66.960938 3.007812 131.183594 C 3.007812 170.210938 22.113281 204.742188 51.453125 225.832031 L 51.453125 336.667969 C 51.453125 349.515625 61.835938 359.957031 74.601562 359.957031 L 348.839844 359.957031 C 361.636719 359.957031 371.992188 349.515625 371.992188 336.667969 L 371.992188 139.480469 C 371.992188 126.601562 361.636719 116.160156 348.839844 116.160156 Z M 348.839844 116.160156 " fill-opacity="1" fill-rule="nonzero"/><path fill="#6fceae" d="M 304.890625 224.941406 L 342.175781 224.941406 L 342.175781 262.449219 L 304.890625 262.449219 Z M 304.890625 224.941406 " fill-opacity="1" fill-rule="nonzero"/><path fill="#1ea6bc" d="M 371.992188 164.914062 L 371.992188 336.667969 C 371.992188 349.515625 361.636719 359.957031 348.839844 359.957031 L 74.601562 359.957031 C 61.835938 359.957031 51.453125 349.515625 51.453125 336.667969 L 51.453125 225.832031 C 60.5 232.347656 70.527344 237.582031 81.269531 241.273438 L 81.269531 337.441406 L 342.175781 337.441406 L 342.175781 187.433594 L 219.695312 187.433594 C 223.59375 180.351562 226.777344 172.796875 229.128906 164.914062 Z M 371.992188 164.914062 " fill-opacity="1" fill-rule="nonzero"/><path fill="#ffc05a" d="M 371.992188 139.480469 L 371.992188 164.914062 L 229.160156 164.914062 C 232.375 154.234375 234.097656 142.902344 234.097656 131.183594 C 234.097656 126.097656 233.773438 121.070312 233.148438 116.160156 L 293.730469 116.160156 L 293.730469 133.503906 C 293.730469 138.441406 297.71875 142.425781 302.660156 142.425781 L 307.152344 142.425781 C 312.089844 142.425781 316.078125 138.441406 316.078125 133.503906 L 316.078125 116.160156 L 348.839844 116.160156 C 361.636719 116.160156 371.992188 126.601562 371.992188 139.480469 Z M 371.992188 139.480469 " fill-opacity="1" fill-rule="nonzero"/><path fill="#6fceae" d="M 304.890625 299.960938 L 342.175781 299.960938 L 342.175781 337.441406 L 304.890625 337.441406 Z M 304.890625 299.960938 " fill-opacity="1" fill-rule="nonzero"/><path fill="#e15c63" d="M 304.890625 262.449219 L 342.175781 262.449219 L 342.175781 299.960938 L 304.890625 299.960938 Z M 304.890625 262.449219 " fill-opacity="1" fill-rule="nonzero"/><path fill="#e7f2f1" d="M 304.890625 187.433594 L 342.175781 187.433594 L 342.175781 224.941406 L 304.890625 224.941406 Z M 304.890625 187.433594 " fill-opacity="1" fill-rule="nonzero"/><path fill="#894687" d="M 316.078125 116.160156 L 316.078125 133.503906 C 316.078125 138.441406 312.089844 142.425781 307.152344 142.425781 L 302.660156 142.425781 C 297.71875 142.425781 293.730469 138.441406 293.730469 133.503906 L 293.730469 98.847656 C 293.730469 93.910156 297.71875 89.925781 302.660156 89.925781 L 307.152344 89.925781 C 312.089844 89.925781 316.078125 93.910156 316.078125 98.847656 Z M 316.078125 116.160156 " fill-opacity="1" fill-rule="nonzero"/><path fill="#e15c63" d="M 267.632812 299.960938 L 304.890625 299.960938 L 304.890625 337.441406 L 267.632812 337.441406 Z M 267.632812 299.960938 " fill-opacity="1" fill-rule="nonzero"/><path fill="#e7f2f1" d="M 267.632812 262.449219 L 304.890625 262.449219 L 304.890625 299.960938 L 267.632812 299.960938 Z M 267.632812 262.449219 " fill-opacity="1" fill-rule="nonzero"/><path fill="#c3ddda" d="M 267.632812 224.941406 L 304.890625 224.941406 L 304.890625 262.449219 L 267.632812 262.449219 Z M 267.632812 224.941406 " fill-opacity="1" fill-rule="nonzero"/><path fill="#e15c63" d="M 267.632812 187.433594 L 304.890625 187.433594 L 304.890625 224.941406 L 267.632812 224.941406 Z M 267.632812 187.433594 " fill-opacity="1" fill-rule="nonzero"/><path fill="#e7f2f1" d="M 230.351562 299.960938 L 267.632812 299.960938 L 267.632812 337.441406 L 230.351562 337.441406 Z M 230.351562 299.960938 " fill-opacity="1" fill-rule="nonzero"/><path fill="#c3ddda" d="M 230.351562 262.449219 L 267.632812 262.449219 L 267.632812 299.960938 L 230.351562 299.960938 Z M 230.351562 262.449219 " fill-opacity="1" fill-rule="nonzero"/><path fill="#e7f2f1" d="M 230.351562 224.941406 L 267.632812 224.941406 L 267.632812 262.449219 L 230.351562 262.449219 Z M 230.351562 224.941406 " fill-opacity="1" fill-rule="nonzero"/><path fill="#c3ddda" d="M 230.351562 187.433594 L 267.632812 187.433594 L 267.632812 224.941406 L 230.351562 224.941406 Z M 230.351562 187.433594 " fill-opacity="1" fill-rule="nonzero"/><path fill="#c3ddda" d="M 193.09375 299.960938 L 230.351562 299.960938 L 230.351562 337.441406 L 193.09375 337.441406 Z M 193.09375 299.960938 " fill-opacity="1" fill-rule="nonzero"/><path fill="#e7f2f1" d="M 193.09375 262.449219 L 230.351562 262.449219 L 230.351562 299.960938 L 193.09375 299.960938 Z M 193.09375 262.449219 " fill-opacity="1" fill-rule="nonzero"/><path fill="#e15c63" d="M 193.09375 224.941406 L 230.351562 224.941406 L 230.351562 262.449219 L 193.09375 262.449219 Z M 193.09375 224.941406 " fill-opacity="1" fill-rule="nonzero"/><path fill="#e7f2f1" d="M 230.351562 187.433594 L 230.351562 224.941406 L 193.09375 224.941406 L 193.09375 219.972656 C 203.808594 210.871094 212.851562 199.867188 219.695312 187.433594 Z M 230.351562 187.433594 " fill-opacity="1" fill-rule="nonzero"/><path fill="#e15c63" d="M 193.09375 220.003906 L 193.09375 224.941406 L 186.875 224.941406 C 189.019531 223.335938 191.101562 221.699219 193.09375 219.972656 Z M 193.09375 220.003906 " fill-opacity="1" fill-rule="nonzero"/><path fill="#e15c63" d="M 155.808594 299.960938 L 193.09375 299.960938 L 193.09375 337.441406 L 155.808594 337.441406 Z M 155.808594 299.960938 " fill-opacity="1" fill-rule="nonzero"/><path fill="#c3ddda" d="M 155.808594 262.449219 L 193.09375 262.449219 L 193.09375 299.960938 L 155.808594 299.960938 Z M 155.808594 262.449219 " fill-opacity="1" fill-rule="nonzero"/><path fill="#e7f2f1" d="M 193.09375 224.941406 L 193.09375 262.449219 L 155.808594 262.449219 L 155.808594 241.273438 C 167.058594 237.40625 177.5 231.871094 186.875 224.941406 Z M 193.09375 224.941406 " fill-opacity="1" fill-rule="nonzero"/><path fill="#c3ddda" d="M 118.554688 299.960938 L 155.808594 299.960938 L 155.808594 337.441406 L 118.554688 337.441406 Z M 118.554688 299.960938 " fill-opacity="1" fill-rule="nonzero"/><path fill="#e7f2f1" d="M 118.554688 262.449219 L 155.808594 262.449219 L 155.808594 299.960938 L 118.554688 299.960938 Z M 118.554688 262.449219 " fill-opacity="1" fill-rule="nonzero"/><path fill="#c3ddda" d="M 155.808594 241.273438 L 155.808594 262.449219 L 118.554688 262.449219 L 118.554688 247.429688 C 131.585938 247.429688 144.113281 245.257812 155.808594 241.273438 Z M 155.808594 241.273438 " fill-opacity="1" fill-rule="nonzero"/><path fill="#e7f2f1" d="M 81.269531 299.960938 L 118.554688 299.960938 L 118.554688 337.441406 L 81.269531 337.441406 Z M 81.269531 299.960938 " fill-opacity="1" fill-rule="nonzero"/><path fill="#e15c63" d="M 81.269531 262.449219 L 118.554688 262.449219 L 118.554688 299.960938 L 81.269531 299.960938 Z M 81.269531 262.449219 " fill-opacity="1" fill-rule="nonzero"/><path fill="#e7f2f1" d="M 118.554688 247.429688 L 118.554688 262.449219 L 81.269531 262.449219 L 81.269531 241.273438 C 92.964844 245.257812 105.492188 247.429688 118.554688 247.429688 Z M 118.554688 247.429688 " fill-opacity="1" fill-rule="nonzero"/><path fill="#604533" d="M 125.992188 131.183594 C 125.992188 132.402344 125.695312 133.59375 125.191406 134.601562 C 123.941406 137.011719 121.441406 138.679688 118.554688 138.679688 C 114.417969 138.679688 111.085938 135.316406 111.085938 131.183594 C 111.085938 128.238281 112.75 125.710938 115.191406 124.488281 C 116.203125 123.984375 117.363281 123.6875 118.554688 123.6875 C 122.660156 123.6875 125.992188 127.019531 125.992188 131.183594 Z M 125.992188 131.183594 " fill-opacity="1" fill-rule="nonzero"/><path fill="#655f68" d="M 233.148438 116.160156 C 233.773438 121.070312 234.097656 126.097656 234.097656 131.183594 C 234.097656 142.902344 232.375 154.234375 229.160156 164.914062 L 229.128906 164.914062 C 226.777344 172.796875 223.59375 180.351562 219.695312 187.433594 C 212.851562 199.867188 203.808594 210.871094 193.09375 219.972656 C 191.101562 221.699219 189.015625 223.335938 186.875 224.941406 C 177.5 231.871094 167.058594 237.40625 155.808594 241.273438 C 144.113281 245.257812 131.585938 247.429688 118.554688 247.429688 C 105.492188 247.429688 92.964844 245.257812 81.269531 241.273438 C 70.527344 237.582031 60.5 232.347656 51.453125 225.832031 C 22.113281 204.742188 3.007812 170.210938 3.007812 131.183594 C 3.007812 66.960938 54.726562 14.90625 118.554688 14.90625 C 177.292969 14.90625 225.828125 59.050781 233.148438 116.160156 Z M 211.722656 131.183594 C 211.722656 105.273438 201.308594 81.835938 184.433594 64.878906 C 167.5625 47.925781 144.292969 37.425781 118.554688 37.425781 C 92.8125 37.425781 69.515625 47.925781 52.671875 64.878906 C 35.800781 81.835938 25.386719 105.273438 25.386719 131.183594 C 25.386719 157.089844 35.800781 180.53125 52.671875 197.484375 C 69.515625 214.441406 92.8125 224.941406 118.554688 224.941406 C 144.292969 224.941406 167.5625 214.441406 184.433594 197.484375 C 201.308594 180.53125 211.722656 157.089844 211.722656 131.183594 Z M 211.722656 131.183594 " fill-opacity="1" fill-rule="nonzero"/><path fill="#f9b132" d="M 371.992188 139.480469 L 371.992188 164.914062 L 360.328125 164.914062 C 362.441406 151.4375 363.570312 136.984375 363.570312 121.484375 C 368.71875 125.769531 371.992188 132.222656 371.992188 139.480469 Z M 371.992188 139.480469 " fill-opacity="1" fill-rule="nonzero"/><path fill="#53b79a" d="M 342.175781 224.941406 L 342.175781 262.449219 L 317.804688 262.449219 C 327 251.386719 335.183594 238.921875 341.9375 224.941406 Z M 342.175781 224.941406 " fill-opacity="1" fill-rule="nonzero"/><path fill="#d6eae8" d="M 304.890625 276.492188 L 304.890625 299.960938 L 276.085938 299.960938 C 286.261719 293.089844 295.933594 285.296875 304.890625 276.492188 Z M 304.890625 276.492188 " fill-opacity="1" fill-rule="nonzero"/><path fill="#d14b62" d="M 342.175781 262.449219 L 342.175781 299.960938 L 304.890625 299.960938 L 304.890625 276.492188 C 309.382812 272.089844 313.699219 267.386719 317.804688 262.449219 Z M 342.175781 262.449219 " fill-opacity="1" fill-rule="nonzero"/><path fill="#53b79a" d="M 304.890625 299.960938 L 342.175781 299.960938 L 342.175781 337.441406 L 304.890625 337.441406 Z M 304.890625 299.960938 " fill-opacity="1" fill-rule="nonzero"/><path fill="#d14b62" d="M 304.890625 299.960938 L 304.890625 337.441406 L 267.632812 337.441406 L 267.632812 305.402344 C 270.492188 303.648438 273.316406 301.835938 276.085938 299.960938 Z M 304.890625 299.960938 " fill-opacity="1" fill-rule="nonzero"/><path fill="#d6eae8" d="M 267.632812 305.402344 L 267.632812 337.441406 L 230.351562 337.441406 L 230.351562 324.082031 C 243.085938 318.90625 255.644531 312.75 267.632812 305.402344 Z M 267.632812 305.402344 " fill-opacity="1" fill-rule="nonzero"/><path fill="#b8d3cf" d="M 230.351562 324.082031 L 230.351562 337.441406 L 193.09375 337.441406 L 193.09375 336.578125 C 205.472656 333.246094 218 329.140625 230.351562 324.082031 Z M 230.351562 324.082031 " fill-opacity="1" fill-rule="nonzero"/><path fill="#1498b7" d="M 230.351562 337.441406 L 342.175781 337.441406 L 342.175781 224.464844 C 350.566406 207.09375 356.816406 187.34375 360.328125 164.914062 L 371.992188 164.914062 L 371.992188 336.667969 C 371.992188 349.515625 361.636719 359.957031 348.839844 359.957031 L 74.601562 359.957031 C 66.628906 359.957031 59.605469 355.882812 55.441406 349.695312 C 57.046875 349.84375 120.726562 355.347656 189.792969 337.441406 Z M 230.351562 337.441406 " fill-opacity="1" fill-rule="nonzero"/><path fill="#1498b7" d="M 81.269531 262.449219 L 81.269531 262.984375 C 62.222656 253.765625 51.453125 242.105469 51.453125 242.105469 L 51.453125 225.832031 C 60.5 232.347656 70.527344 237.582031 81.269531 241.273438 Z M 81.269531 262.449219 " fill-opacity="1" fill-rule="nonzero"/><path fill="#d14b62" d="M 118.554688 273.515625 C 104.003906 272.175781 91.445312 267.953125 81.269531 262.984375 L 81.269531 262.449219 L 118.554688 262.449219 Z M 118.554688 273.515625 " fill-opacity="1" fill-rule="nonzero"/><path fill="#d6eae8" d="M 118.554688 247.429688 L 118.554688 262.449219 L 81.269531 262.449219 L 81.269531 241.273438 C 92.964844 245.257812 105.492188 247.429688 118.554688 247.429688 Z M 118.554688 247.429688 " fill-opacity="1" fill-rule="nonzero"/><path fill="#d14b62" d="M 193.09375 220.003906 L 193.09375 224.941406 L 186.875 224.941406 C 189.019531 223.335938 191.101562 221.699219 193.09375 219.972656 Z M 193.09375 220.003906 " fill-opacity="1" fill-rule="nonzero"/><path fill="#b8d3cf" d="M 155.808594 241.273438 L 155.808594 262.449219 L 118.554688 262.449219 L 118.554688 247.429688 C 131.585938 247.429688 144.113281 245.257812 155.808594 241.273438 Z M 155.808594 241.273438 " fill-opacity="1" fill-rule="nonzero"/><path fill="#d6eae8" d="M 155.808594 262.449219 L 155.808594 270.570312 C 142.300781 273.960938 129.832031 274.644531 118.554688 273.515625 L 118.554688 262.449219 Z M 155.808594 262.449219 " fill-opacity="1" fill-rule="nonzero"/><path fill="#b8d3cf" d="M 155.808594 262.449219 L 178.574219 262.449219 C 170.71875 266.078125 163.097656 268.726562 155.808594 270.570312 Z M 155.808594 262.449219 " fill-opacity="1" fill-rule="nonzero"/><path fill="#d6eae8" d="M 193.09375 224.941406 L 193.09375 254.867188 C 188.15625 257.78125 183.304688 260.308594 178.574219 262.449219 L 155.808594 262.449219 L 155.808594 241.273438 C 167.058594 237.40625 177.5 231.871094 186.875 224.941406 Z M 193.09375 224.941406 " fill-opacity="1" fill-rule="nonzero"/><path fill="#d14b62" d="M 193.09375 224.941406 L 227.703125 224.941406 C 221.75 233.121094 214.191406 240.765625 204.640625 247.429688 C 200.742188 250.136719 196.875 252.632812 193.09375 254.867188 Z M 193.09375 224.941406 " fill-opacity="1" fill-rule="nonzero"/><path fill="#d6eae8" d="M 230.351562 187.433594 L 230.351562 221.105469 C 229.515625 222.382812 228.625 223.664062 227.703125 224.941406 L 193.09375 224.941406 L 193.09375 219.972656 C 203.808594 210.871094 212.851562 199.867188 219.695312 187.433594 Z M 230.351562 187.433594 " fill-opacity="1" fill-rule="nonzero"/><path fill="#b8d3cf" d="M 230.351562 187.433594 L 244.601562 187.433594 C 241.894531 198.792969 237.402344 210.335938 230.351562 221.105469 Z M 230.351562 187.433594 " fill-opacity="1" fill-rule="nonzero"/><path fill="#1498b7" d="M 229.160156 164.914062 L 248.054688 164.914062 C 247.519531 172.140625 246.476562 179.757812 244.601562 187.433594 L 219.695312 187.433594 C 223.59375 180.351562 226.777344 172.796875 229.128906 164.914062 Z M 229.160156 164.914062 " fill-opacity="1" fill-rule="nonzero"/><path fill="#f9b132" d="M 244.097656 116.160156 C 244.097656 116.160156 249.929688 137.785156 248.054688 164.914062 L 229.160156 164.914062 C 232.375 154.234375 234.097656 142.902344 234.097656 131.183594 C 234.097656 126.097656 233.773438 121.070312 233.148438 116.160156 Z M 244.097656 116.160156 " fill-opacity="1" fill-rule="nonzero"/><path fill="#3a322b" d="M 50.773438 199.722656 C 68.167969 217.132812 92.128906 227.914062 118.546875 227.914062 C 144.960938 227.914062 168.921875 217.136719 186.320312 199.730469 C 186.386719 199.671875 186.46875 199.652344 186.53125 199.589844 C 186.601562 199.523438 186.625 199.433594 186.683594 199.363281 C 203.992188 181.859375 214.703125 157.753906 214.703125 131.175781 C 214.703125 104.597656 203.992188 80.492188 186.683594 62.992188 C 186.625 62.917969 186.601562 62.828125 186.53125 62.765625 C 186.46875 62.703125 186.386719 62.679688 186.320312 62.625 C 168.921875 45.21875 144.960938 34.441406 118.546875 34.441406 C 92.128906 34.441406 68.167969 45.21875 50.773438 62.628906 C 50.707031 62.6875 50.625 62.707031 50.5625 62.769531 C 50.496094 62.835938 50.472656 62.921875 50.414062 62.992188 C 33.109375 80.496094 22.394531 104.601562 22.394531 131.179688 C 22.394531 157.757812 33.109375 181.863281 50.414062 199.367188 C 50.472656 199.433594 50.496094 199.523438 50.5625 199.589844 C 50.625 199.644531 50.707031 199.667969 50.773438 199.722656 Z M 28.421875 134.148438 L 44.007812 134.148438 C 45.652344 134.148438 46.984375 132.820312 46.984375 131.171875 C 46.984375 129.527344 45.652344 128.199219 44.007812 128.199219 L 28.421875 128.199219 C 29.160156 105.417969 38.257812 84.738281 52.742188 69.175781 L 63.734375 80.230469 C 64.3125 80.8125 65.078125 81.109375 65.84375 81.109375 C 66.601562 81.109375 67.359375 80.820312 67.941406 80.242188 C 69.105469 79.085938 69.113281 77.207031 67.953125 76.035156 L 56.9375 64.953125 C 72.398438 50.371094 92.9375 41.203125 115.574219 40.460938 L 115.574219 56.160156 C 115.574219 57.804688 116.90625 59.136719 118.550781 59.136719 C 120.195312 59.136719 121.527344 57.804688 121.527344 56.160156 L 121.527344 40.460938 C 144.160156 41.203125 164.699219 50.371094 180.160156 64.949219 L 169.148438 76.035156 C 167.992188 77.207031 167.996094 79.085938 169.164062 80.246094 C 169.746094 80.820312 170.503906 81.109375 171.261719 81.109375 C 172.027344 81.109375 172.792969 80.8125 173.375 80.230469 L 184.359375 69.175781 C 198.84375 84.738281 207.945312 105.417969 208.679688 128.199219 L 193.097656 128.199219 C 191.453125 128.199219 190.121094 129.527344 190.121094 131.171875 C 190.121094 132.820312 191.453125 134.148438 193.097656 134.148438 L 208.679688 134.148438 C 207.945312 156.929688 198.847656 177.605469 184.359375 193.171875 L 173.375 182.117188 C 172.207031 180.949219 170.332031 180.945312 169.164062 182.101562 C 167.996094 183.261719 167.992188 185.140625 169.148438 186.308594 L 180.160156 197.398438 C 164.699219 211.976562 144.160156 221.144531 121.527344 221.886719 L 121.527344 206.1875 C 121.527344 204.542969 120.195312 203.210938 118.550781 203.210938 C 116.90625 203.210938 115.574219 204.542969 115.574219 206.1875 L 115.574219 221.886719 C 92.941406 221.144531 72.398438 211.976562 56.9375 197.394531 L 67.953125 186.308594 C 69.113281 185.140625 69.105469 183.261719 67.941406 182.105469 C 66.773438 180.945312 64.894531 180.953125 63.734375 182.117188 L 52.742188 193.171875 C 38.257812 177.609375 29.15625 156.929688 28.421875 134.148438 Z M 28.421875 134.148438 " fill-opacity="1" fill-rule="nonzero"/><path fill="#3a322b" d="M 111.488281 123.515625 C 109.429688 125.429688 108.117188 128.140625 108.117188 131.171875 C 108.117188 136.949219 112.796875 141.648438 118.546875 141.648438 C 121.589844 141.648438 124.304688 140.308594 126.214844 138.214844 L 180.796875 160.183594 C 181.160156 160.332031 181.535156 160.398438 181.910156 160.398438 C 183.085938 160.398438 184.203125 159.695312 184.671875 158.535156 C 185.28125 157.011719 184.546875 155.277344 183.019531 154.664062 L 128.808594 132.847656 C 128.898438 132.296875 128.976562 131.746094 128.976562 131.171875 C 128.976562 125.398438 124.300781 120.699219 118.546875 120.699219 C 117.957031 120.699219 117.382812 120.78125 116.820312 120.875 L 98.898438 81.195312 C 98.222656 79.699219 96.460938 79.019531 94.960938 79.707031 C 93.464844 80.382812 92.796875 82.144531 93.476562 83.640625 Z M 123.027344 131.171875 C 123.027344 133.667969 121.019531 135.699219 118.546875 135.699219 C 116.078125 135.699219 114.070312 133.667969 114.070312 131.171875 C 114.070312 128.679688 116.078125 126.648438 118.546875 126.648438 C 121.019531 126.648438 123.027344 128.679688 123.027344 131.171875 Z M 123.027344 131.171875 " fill-opacity="1" fill-rule="nonzero"/><g clip-path="url(#c5a5fbb3bb)"><path fill="#3a322b" d="M 348.835938 113.199219 L 319.058594 113.199219 L 319.058594 98.84375 C 319.058594 92.28125 313.722656 86.945312 307.15625 86.945312 L 302.648438 86.945312 C 296.085938 86.945312 290.746094 92.28125 290.746094 98.84375 L 290.746094 113.199219 L 235.714844 113.199219 C 227.074219 55.945312 177.824219 11.933594 118.546875 11.933594 C 53.199219 11.933594 0.03125 65.421875 0.03125 131.171875 C 0.03125 170.566406 19.128906 205.542969 48.484375 227.269531 L 48.484375 336.65625 C 48.484375 351.144531 60.207031 362.933594 74.613281 362.933594 L 348.835938 362.933594 C 363.242188 362.933594 374.964844 351.144531 374.964844 336.65625 L 374.964844 139.472656 C 374.96875 124.988281 363.246094 113.199219 348.835938 113.199219 Z M 296.699219 98.84375 C 296.699219 95.5625 299.367188 92.894531 302.648438 92.894531 L 307.15625 92.894531 C 310.441406 92.894531 313.109375 95.5625 313.109375 98.84375 L 313.109375 133.5 C 313.109375 136.78125 310.441406 139.449219 307.15625 139.449219 L 302.648438 139.449219 C 299.367188 139.449219 296.699219 136.78125 296.699219 133.5 Z M 290.746094 119.148438 L 290.746094 133.5 C 290.746094 140.0625 296.085938 145.398438 302.648438 145.398438 L 307.15625 145.398438 C 313.722656 145.398438 319.058594 140.0625 319.058594 133.5 L 319.058594 119.148438 L 348.835938 119.148438 C 359.964844 119.148438 369.015625 128.265625 369.015625 139.472656 L 369.015625 161.953125 L 233.039062 161.953125 C 235.652344 152.128906 237.066406 141.816406 237.066406 131.171875 C 237.066406 127.113281 236.859375 123.105469 236.464844 119.148438 Z M 5.984375 131.171875 C 5.984375 68.703125 56.480469 17.882812 118.546875 17.882812 C 180.613281 17.882812 231.113281 68.703125 231.113281 131.171875 C 231.113281 193.644531 180.613281 244.464844 118.546875 244.464844 C 56.480469 244.464844 5.984375 193.644531 5.984375 131.171875 Z M 264.660156 190.40625 L 264.660156 221.960938 L 233.335938 221.960938 L 233.335938 190.40625 Z M 301.925781 190.40625 L 301.925781 221.960938 L 270.609375 221.960938 L 270.609375 190.40625 Z M 339.195312 190.40625 L 339.195312 221.960938 L 307.878906 221.960938 L 307.878906 190.40625 Z M 270.609375 334.480469 L 270.609375 302.921875 L 301.925781 302.921875 L 301.925781 334.476562 L 270.609375 334.476562 Z M 233.335938 334.480469 L 233.335938 302.921875 L 264.660156 302.921875 L 264.660156 334.476562 L 233.335938 334.476562 Z M 226.632812 334.480469 L 196.066406 334.480469 L 196.066406 302.921875 L 227.386719 302.921875 L 227.386719 334.476562 L 226.632812 334.476562 Z M 158.796875 334.480469 L 158.796875 302.921875 L 190.117188 302.921875 L 190.117188 334.476562 L 158.796875 334.476562 Z M 121.523438 334.480469 L 121.523438 302.921875 L 152.84375 302.921875 L 152.84375 334.476562 L 121.523438 334.476562 Z M 84.253906 334.480469 L 84.253906 302.921875 L 115.570312 302.921875 L 115.570312 334.476562 L 84.253906 334.476562 Z M 115.570312 250.339844 L 115.570312 259.46875 L 84.253906 259.46875 L 84.253906 245.300781 C 94.207031 248.339844 104.710938 250.066406 115.570312 250.339844 Z M 152.84375 245.304688 L 152.84375 259.46875 L 121.523438 259.46875 L 121.523438 250.339844 C 132.382812 250.066406 142.890625 248.339844 152.84375 245.304688 Z M 187.714844 227.910156 L 190.117188 227.910156 L 190.117188 259.46875 L 158.792969 259.46875 L 158.792969 243.324219 C 169.1875 239.539062 178.898438 234.3125 187.714844 227.910156 Z M 264.660156 227.910156 L 264.660156 259.46875 L 233.335938 259.46875 L 233.335938 227.910156 Z M 241.542969 296.972656 L 233.335938 296.972656 L 233.335938 265.417969 L 264.660156 265.417969 L 264.660156 296.972656 Z M 158.796875 296.972656 L 158.796875 265.417969 L 190.117188 265.417969 L 190.117188 296.972656 Z M 84.253906 265.417969 L 115.570312 265.417969 L 115.570312 296.972656 L 84.253906 296.972656 Z M 121.523438 265.417969 L 152.84375 265.417969 L 152.84375 296.972656 L 121.523438 296.972656 Z M 196.066406 265.417969 L 227.386719 265.417969 L 227.386719 296.972656 L 196.066406 296.972656 Z M 270.609375 265.417969 L 301.925781 265.417969 L 301.925781 296.972656 L 270.609375 296.972656 Z M 307.878906 265.417969 L 339.195312 265.417969 L 339.195312 296.972656 L 307.878906 296.972656 Z M 339.195312 259.46875 L 307.878906 259.46875 L 307.878906 227.910156 L 339.195312 227.910156 Z M 301.925781 259.46875 L 270.609375 259.46875 L 270.609375 227.910156 L 301.925781 227.910156 Z M 227.386719 259.46875 L 196.066406 259.46875 L 196.066406 227.910156 L 227.386719 227.910156 Z M 307.878906 302.921875 L 339.195312 302.921875 L 339.195312 334.476562 L 307.878906 334.476562 Z M 227.386719 221.960938 L 196.066406 221.960938 L 196.066406 221.253906 C 206.109375 212.492188 214.671875 202.070312 221.339844 190.402344 L 227.386719 190.402344 Z M 348.835938 356.984375 L 74.613281 356.984375 C 63.488281 356.984375 54.4375 347.867188 54.4375 336.65625 L 54.4375 231.382812 C 61.871094 236.210938 69.855469 240.246094 78.300781 243.324219 L 78.300781 337.453125 C 78.300781 339.097656 79.632812 340.425781 81.277344 340.425781 L 342.175781 340.425781 C 343.820312 340.425781 345.152344 339.097656 345.152344 337.453125 L 345.152344 187.433594 C 345.152344 185.785156 343.820312 184.457031 342.175781 184.457031 L 224.527344 184.457031 C 227.175781 179.152344 229.4375 173.625 231.285156 167.902344 L 369.015625 167.902344 L 369.015625 336.65625 C 369.015625 347.867188 359.964844 356.984375 348.835938 356.984375 Z M 348.835938 356.984375 " fill-opacity="1" fill-rule="nonzero"/></g></svg>