<svg xmlns="http://www.w3.org/2000/svg" width="666.667" height="666.667" preserveAspectRatio="xMidYMid meet" version="1.0" viewBox="0 0 500 500"><metadata>Created by potrace 1.14, written by Peter Selinger 2001-2017</metadata><g fill="#000" stroke="none"><path d="M1512 4114 c-117 -24 -136 -42 -207 -189 -78 -161 -163 -348 -199 -440 -16 -38 -32 -79 -37 -90 -23 -53 -72 -196 -94 -276 -83 -293 -90 -503 -23 -645 43 -92 150 -173 249 -189 32 -5 41 -1 82 35 64 58 168 134 261 193 87 54 252 137 273 137 10 0 13 -27 14 -117 1 -121 2 -139 14 -233 22 -180 76 -385 139 -522 33 -73 100 -182 146 -238 l21 -25 -17 40 c-44 107 -58 146 -76 220 -23 94 -24 99 -34 162 -3 26 -8 57 -10 68 -21 114 -22 690 -1 711 4 4 76 20 177 40 64 12 541 11 620 -2 71 -11 171 -34 178 -40 7 -5 15 -180 15 -324 1 -188 -13 -377 -33 -475 -6 -27 -13 -65 -16 -83 -9 -53 -51 -189 -79 -251 l-25 -56 31 35 c93 107 213 382 242 555 3 17 10 53 15 80 9 44 19 119 27 210 2 17 4 78 5 138 2 80 6 107 15 107 18 0 205 -94 264 -132 133 -88 181 -123 249 -185 60 -55 72 -58 135 -38 110 35 189 112 229 222 27 74 34 261 13 373 -23 123 -25 131 -50 220 -58 204 -115 349 -282 713 -107 232 -125 255 -221 283 -81 24 -271 24 -412 -1 -14 -2 -54 -9 -90 -15 -79 -13 -348 -83 -449 -116 l-75 -24 -70 24 c-66 23 -301 87 -371 101 -68 15 -133 26 -180 31 -27 3 -59 8 -69 11 -41 12 -233 10 -294 -3z m79 -320 c92 -27 150 -55 249 -120 87 -57 259 -209 248 -219 -2 -3 -44 0 -93 7 -135 17 -228 -5 -370 -90 -33 -20 -63 -40 -66 -44 -17 -26 -59 76 -63 154 -4 70 12 138 50 216 l27 56 -33 28 c-40 32 -28 35 51 12z m1870 -12 l-33 -28 17 -33 c65 -126 76 -248 32 -345 l-25 -55 -68 45 c-147 96 -250 116 -449 87 l-40 -6 80 79 c125 124 269 214 410 260 100 32 119 31 76 -4z m-1186 -701 c39 -18 135 -105 135 -122 0 -12 -13 -11 -91 5 -36 8 -90 17 -120 21 -70 9 -89 19 -82 45 8 30 60 70 91 70 15 0 45 -9 67 -19z m576 -10 c26 -26 34 -47 27 -68 -2 -4 -16 -8 -33 -10 -16 -2 -76 -12 -133 -23 -119 -23 -122 -23 -122 -10 0 18 87 96 131 118 61 30 94 28 130 -7z" transform="translate(0.000000,500.000000) scale(0.100000,-0.100000)"/><path d="M1625 2227 c-11 -7 -22 -14 -25 -17 -3 -3 -38 -20 -78 -38 -74 -33 -145 -43 -191 -28 -18 6 -22 5 -15 -5 5 -8 9 -18 10 -24 4 -24 101 -240 157 -350 152 -300 328 -549 524 -743 83 -82 229 -198 303 -242 66 -38 174 -90 188 -90 8 0 55 20 103 44 356 181 695 575 951 1105 58 121 128 282 128 295 0 2 -29 4 -65 4 -64 0 -150 29 -215 72 -50 33 -50 33 -34 -12 19 -54 23 -195 8 -273 -34 -176 -115 -385 -197 -505 -70 -102 -202 -217 -312 -273 l-51 -25 0 26 c0 45 -12 121 -22 138 -7 12 -11 6 -15 -27 -6 -48 -9 -63 -26 -126 -10 -37 -16 -44 -49 -52 -108 -29 -168 -39 -220 -36 -56 2 -183 30 -211 45 -15 8 -50 134 -51 183 0 47 -18 20 -25 -38 -4 -31 -8 -68 -9 -84 -1 -26 -2 -27 -26 -17 -111 48 -249 163 -324 270 -78 109 -176 334 -201 461 -24 125 -25 268 -1 333 8 23 14 42 13 41 -1 0 -11 -6 -22 -12z" transform="translate(0.000000,500.000000) scale(0.100000,-0.100000)"/></g></svg>